<ttFont>
          <CharString index="0">
            555 hmoveto
            -205 25 callsubr
            -130 hlineto
            -205 -700 -10 callgsubr
            55 -6 callgsubr
            230 hlineto
            55 -180 rlineto
            -185 525 rmoveto
            9 30 4 -51 callgsubr
            4 -39 9 -31 vhcurveto
            80 -275 rlineto
            -190 hlineto
            return
          </CharString>
          <CharString index="1">
            155 14 callgsubr
            220 70 70 75 75 70 -70 -220 -220 -70 -70 -75 -75 -70 -28 callgsubr
            vhcurveto
            390 hmoveto
            260 -100 100 -145 -145 -100 -100 -260 -260 100 -100 145 145 100 11 callsubr
            vhcurveto
            return
          </CharString>
          <CharString index="2">
            255 710 rmoveto
            -130 -80 -80 -110 hvcurveto
            -220 325 40 -160 vvcurveto
            -70 -50 -50 -90 -90 -60 45 0 vhcurveto
            -78 callsubr
            75 -55 130 150 80 80 120 vhcurveto
            220 -325 -40 160 vvcurveto
            60 50 50 70 90 50 -45 0 vhcurveto
            10 hlineto
            35 60 rlineto
            0 -65 55 -130 vhcurveto
            return
          </CharString>
          <CharString index="3">
            10 -60 rlineto
            70 320 hlineto
            110 -80 80 -115 -100 -65 -55 0 vhcurveto
            -88 callgsubr
            60 65 40 -40 -80 vhcurveto
            -195 vmoveto
            return
          </CharString>
          <CharString index="4">
            125 -140 rmoveto
            -30 -92 callsubr
            60 85 58 60 80 22 vhcurveto
            160 570 rlineto
            -100 hlineto
            -91 -330 rlineto
            -8 -30 -11 -50 -83 callgsubr
            -11 50 -10 30 vhcurveto
            -110 330 rlineto
            -100 hlineto
            165 -500 rlineto
            40 hlineto
            -20 -70 rlineto
            -40 -11 -29 -30 -35 hhcurveto
            return
          </CharString>
          <CharString index="5">
            rmoveto
            105 10 callsubr
            -65 hlineto
            -75 -65 -75 65 rlineto
            -65 hlineto
            105 -6 callsubr
            endchar
          </CharString>
          <CharString index="6">
            55 14 callgsubr
            -260 100 -100 160 12 callgsubr
            55 0 vhcurveto
            -96 callgsubr
            -70 -100 -70 -28 callgsubr
            220 70 70 90 70 50 -45 0 vhcurveto
            27 callgsubr
            -150 -26 callsubr
            return
          </CharString>
          <CharString index="7">
            480 hmoveto
            70 -290 260 -42 callsubr
            -230 230 2 callgsubr
            return
          </CharString>
          <CharString index="8">
            rmoveto
            -105 -6 callsubr
            65 hlineto
            75 65 75 -65 rlineto
            65 hlineto
            -105 10 callsubr
            endchar
          </CharString>
          <CharString index="9">
            270 65 rmoveto
            -55 -40 40 55 hvcurveto
            340 -100 -340 vlineto
            -100 70 -70 100 100 45 70 0 vhcurveto
            5 hlineto
            return
          </CharString>
          <CharString index="10">
            35 50 30 0 vhcurveto
            -70 hlineto
            0 -50 -35 -45 vvcurveto
            -45 30 -30 60 50 30 25 0 vhcurveto
            52 -9 vlineto
            return
          </CharString>
          <CharString index="11">
            hstemhm
            -40 callsubr
            hintmask 10101100
            -98 callsubr
            hintmask 01101100
            -75 callgsubr
            hintmask 10101100
            0 -45 -60 -60 vhcurveto
            hintmask 00010000
            return
          </CharString>
          <CharString index="12">
            0 -45 -60 -60 -60 -30 30 50 45 35 35 80 vhcurveto
            80 hlineto
            return
          </CharString>
          <CharString index="13">
            -40 -20 20 50 hvcurveto
            -90 hlineto
            -80 50 -50 100 100 50 50 80 vhcurveto
            -90 hlineto
            return
          </CharString>
          <CharString index="14">
            rmoveto
            -98 callgsubr
            return
          </CharString>
          <CharString index="15">
            -25 -33 callgsubr
            -25 -65 rlineto
            0 40 -30 return
          </CharString>
          <CharString index="16">
            rmoveto
            90 -7 callsubr
            65 hlineto
            -45 -44 callgsubr
          </CharString>
          <CharString index="17">
            48 -84 callsubr
            -2 callgsubr
            210 100 -75 75 -75 100 hintmask 11111000
            385 370 rmoveto
            0 115 25 130 vvcurveto
            100 -75 75 -145 vhcurveto
            -190 -700 190 hlineto
            hintmask 11110010
            170 75 75 115 155 -140 25 0 hvcurveto
            -195 15 callsubr
            90 hlineto
            hintmask 11111000
            75 45 -45 -70 -70 -45 -45 -75 hvcurveto
            -90 hlineto
            90 -70 rmoveto
            hintmask 11110100
            100 45 -45 -85 -85 -45 -45 -100 hvcurveto
            -90 260 hlineto
            endchar
          </CharString>
          <CharString index="18">
            0 -45 70 -100 -95 -85 -85 -175 -175 85 -85 115 60 50 30 0 vhcurveto
            -30 vlineto
            -90 -40 -40 -85 -60 -50 45 0 vhcurveto
            -78 callsubr
            65 -55 100 135 80 80 120 vhcurveto
            return
          </CharString>
          <CharString index="19">
            rmoveto
            -25 callgsubr
            55 hlineto
            85 150 rlineto
            40 hmoveto
            -25 callgsubr
            55 hlineto
            85 -44 callgsubr
          </CharString>
          <CharString index="20">
            -67 -62 callgsubr
            232 185 rmoveto
            0 8 -24 10 -16 vhcurveto
            85 -145 -20 callsubr
            -155 255 150 245 rlineto
            -110 hlineto
            -80 -140 rlineto
            -9 -16 -9 -24 -83 callgsubr
            -9 24 -9 16 vhcurveto
            -80 140 rlineto
            -110 hlineto
            150 -245 -155 -255 -20 callsubr
            85 145 rlineto
            10 16 8 24 0 vvcurveto
            endchar
          </CharString>
          <CharString index="21">
            13 callsubr
            75 100 210 100 hintmask 11101100
            175 375 rmoveto
            -29 callsubr
            55 50 -50 -135 -140 -50 -50 -65 -55 -40 20 0 vhcurveto
            -250 vmoveto
            190 vlineto
            0 50 -30 60 115 85 85 175 175 -85 85 -95 -100 -45 -70 0 vhcurveto
            -5 hlineto
            hintmask 11011100
            -10 60 rlineto
            -70 -700 70 hlineto
            endchar
          </CharString>
          <CharString index="22">
            100 250 vlineto
            180 -250 rlineto
            115 hlineto
            -190 260 180 240 rlineto
            -115 hlineto
            -170 -230 rlineto
            return
          </CharString>
          <CharString index="23">
            0 -50 callsubr
            -42 callsubr
            return
          </CharString>
          <CharString index="24">
            21 -71 callgsubr
            return
          </CharString>
          <CharString index="25">
            460 hmoveto
            70 -315 vlineto
            310 555 rlineto
            75 -430 -70 310 vlineto
            -310 -555 rlineto
            -75 vlineto
            return
          </CharString>
          <CharString index="26">
            0 vvcurveto
            4 hlineto
            0 return
          </CharString>
          <CharString index="27">
            33 21 -21 375 75 70 70 110 -20 hstem
            90 9 callgsubr
            vstem
            25 590 rmoveto
            -70 65 -520 100 315 vlineto
            -29 callsubr
            55 40 -40 -55 vhcurveto
            -280 100 280 -22 callsubr
            120 135 70 -135 110 -70 vlineto
            -30 -30 rlineto
            -80 vlineto
            endchar
          </CharString>
          <CharString index="28">
            58 0 70 250 80 -42 callsubr
            hstem
            90 -11 callgsubr
            240 hmoveto
            -18 callsubr
            100 250 250 -100 100 -190 hvcurveto
            -150 -300 -55 -80 55 -320 hlineto
            100 70 rmoveto
            250 115 80 -115 230 -56 callgsubr
            endchar
          </CharString>
          <CharString index="29">
            -10 hlineto
            -35 -60 rlineto
            0 return
          </CharString>
          <CharString index="30">
            -10 70 155 -32 callsubr
            return
          </CharString>
          <CharString index="31">
            rmoveto
            40 30 -30 -90 -74 callgsubr
            hvcurveto
            return
          </CharString>
          <CharString index="32">
            360 80 rmoveto
            0 -40 -20 -55 -65 -50 50 140 135 50 50 55 60 45 -60 0 vhcurveto
            return
          </CharString>
          <CharString index="33">
            -50 50 140 140 50 50 return
          </CharString>
          <CharString index="34">
            -35 25 -25 30 vhcurveto
            -45 -55 -40 -38 callsubr
            -35 rlineto
            0 90 55 115 vvcurveto
            45 -25 25 -40 -30 -25 -25 -35 vhcurveto
            endchar
          </CharString>
          <CharString index="35">
            -45 callgsubr
            hlineto
            return
          </CharString>
          <CharString index="36">
            vlineto
            50 30 -30 -45 10 hvcurveto
            35 -160 rlineto
            hintmask 10110100
            -60 13 37 -40 65 hhcurveto
            hintmask 01110100
            40 20 20 callsubr
            65 rlineto
            -5 hlineto
            hintmask 10110100
            0 -10 -5 -10 -20 -13 15 30 -7 vhcurveto
            -35 160 rlineto
            -19 85 -86 15 0 vvcurveto
            return
          </CharString>
          <CharString index="37">
            -50 45 0 hvcurveto
            -78 callsubr
            65 -55 return
          </CharString>
          <CharString index="38">
            -98 callgsubr
            endchar
          </CharString>
          <CharString index="39">
            0 86 10 14 80 vhcurveto
            25 140 rlineto
            30 5 15 15 20 -60 callgsubr
            -20 10 -40 -65 -39 -40 -60 -11 vhcurveto
            -25 -140 rlineto
            -45 -8 -32 -30 -55 hhcurveto
            return
          </CharString>
          <CharString index="40">
            410 445 rmoveto
            15 30 15 55 -21 callsubr
            -55 -30 vvcurveto
            -445 100 700 -100 vlineto
            -220 -445 rlineto
            -15 -30 -15 -55 -83 callgsubr
            4 55 30 vvcurveto
            445 -100 -700 100 vlineto
            return
          </CharString>
          <CharString index="41">
            -10 -46 callsubr
            return
          </CharString>
          <CharString index="42">
            -10 -33 callsubr
            return
          </CharString>
          <CharString index="43">
            rmoveto
            65 -50 50 -80 -80 -46 -45 0 vhcurveto
            26 -45 rlineto
            10 hlineto
            0 25 30 48 37 20 -20 -35 vhcurveto
            -70 -170 5 -130 vvcurveto
            -40 260 60 -170 vlineto
            60 170 0 115 vvcurveto
            endchar
          </CharString>
          <CharString index="44">
            -10 60 rlineto
            -70 -500 100 return
          </CharString>
          <CharString index="45">
            hmoveto
            100 700 -100 hlineto
            return
          </CharString>
          <CharString index="46">
            vlineto
            35 22 -20 -30 8 hvcurveto
            25 -95 rlineto
            hintmask 10110100
            -54 14 31 -31 55 hhcurveto
            hintmask 01110100
            35 25 20 callsubr
            65 rlineto
            -5 hlineto
            hintmask 10110100
            0 -10 -5 -10 -15 -10 10 20 -5 vhcurveto
            -25 95 return
          </CharString>
          <CharString index="47">
            290 hmoveto
            630 180 70 -460 -70 180 -630 vlineto
            return
          </CharString>
          <CharString index="48">
            103 21 -21 320 70 310 -29 callgsubr
            250 100 vstem
            440 -24 callgsubr
            -310 -250 310 -100 -700 100 320 250 -320 100 700 vlineto
            endchar
          </CharString>
          <CharString index="49">
            -55 callgsubr
            180 hmoveto
            -49 callsubr
          </CharString>
          <CharString index="50">
            hmoveto
            110 hlineto
            470 25 callsubr
            -110 hlineto
            return
          </CharString>
          <CharString index="51">
            rmoveto
            210 -90 vlineto
            -170 -210 rlineto
            -60 170 -70 90 70 50 60 vlineto
            -157 90 rmoveto
            9 11 10 32 -81 callsubr
            -6 -28 -15 vvcurveto
            -90 -90 vlineto
            return
          </CharString>
          <CharString index="52">
            hstemhm
            50 100 210 100 return
          </CharString>
          <CharString index="53">
            70 380 70 return
          </CharString>
          <CharString index="54">
            30 15 -15 -20 -20 -15 -15 -25 hvcurveto
            return
          </CharString>
          <CharString index="55">
            -10 75 -44 -19 callgsubr
            return
          </CharString>
          <CharString index="56">
            -1 callgsubr
            vstem
            40 650 rmoveto
            -35 25 -25 30 vhcurveto
            -45 -55 -40 -38 callsubr
            -35 rlineto
            0 90 55 115 vvcurveto
            45 -25 25 -40 -30 -25 -25 -35 vhcurveto
            return
          </CharString>
          <CharString index="57">
            70 260 70 return
          </CharString>
          <CharString index="58">
            -102 callgsubr
            endchar
          </CharString>
          <CharString index="59">
            -10 70 640 -20 return
          </CharString>
          <CharString index="60">
            -155 55 -55 155 return
          </CharString>
          <CharString index="61">
            70 -27 callgsubr
            return
          </CharString>
          <CharString index="62">
            190 vlineto
            165 80 80 130 130 -80 80 -165 hvcurveto
            -70 vmoveto
            95 50 -50 -90 -90 -50 -50 -95 hvcurveto
            -90 280 hlineto
            endchar
          </CharString>
          <CharString index="63">
            275 430 rmoveto
            30 35 -10 0 hvcurveto
            10 hlineto
            return
          </CharString>
          <CharString index="64">
            -50 -20 -20 -40 vhcurveto
            endchar
          </CharString>
          <CharString index="65">
            230 70 return
          </CharString>
          <CharString index="66">
            rmoveto
            -700 390 70 -290 630 vlineto
            return
          </CharString>
          <CharString index="67">
            75 9 callgsubr
            return
          </CharString>
          <CharString index="68">
            150 hstemhm
            return
          </CharString>
          <CharString index="69">
            0 vhcurveto
            30 return
          </CharString>
          <CharString index="70">
            vlineto
            100 5 callgsubr
            -100 hvcurveto
            return
          </CharString>
          <CharString index="71">
            100 700 -70 hlineto
            -30 -30 rlineto
            return
          </CharString>
          <CharString index="72">
            70 -25 25 -25 70 hstemhm
            return
          </CharString>
          <CharString index="73">
            60 -60 130 hstemhm
            return
          </CharString>
          <CharString index="74">
            75 -44 -21 return
          </CharString>
          <CharString index="75">
            10 callgsubr
            70 return
          </CharString>
          <CharString index="76">
            -150 220 -70 70 630 -8 callsubr
            return
          </CharString>
          <CharString index="77">
            hhcurveto
            -14 callsubr
            return
          </CharString>
          <CharString index="78">
            0 45 60 60 return
          </CharString>
          <CharString index="79">
            200 100 return
          </CharString>
          <CharString index="80">
            -247 -83 callsubr
            hstem
            90 100 vstem
            90 -62 callsubr
            endchar
          </CharString>
          <CharString index="81">
            -100 -100 -260 vhcurveto
            return
          </CharString>
          <CharString index="82">
            11 callgsubr
            100 return
          </CharString>
          <CharString index="83">
            130 -20 return
          </CharString>
          <CharString index="84">
            160 70 -160 220 -100 -220 -160 -70 160 hlineto
            endchar
          </CharString>
          <CharString index="85">
            vlineto
            100 -70 70 -100 -85 -45 -50 0 vhcurveto
            return
          </CharString>
          <CharString index="86">
            -81 callsubr
            -4 return
          </CharString>
          <CharString index="87">
            rlineto
            110 hlineto
            return
          </CharString>
          <CharString index="88">
            90 120 90 return
          </CharString>
          <CharString index="89">
            190 100 return
          </CharString>
          <CharString index="90">
            hstem
            90 7 callgsubr
            hmoveto
            630 2 callgsubr
            return
          </CharString>
          <CharString index="91">
            -87 290 80 hstem
            410 290 rmoveto
            80 -380 -80 vlineto
            endchar
          </CharString>
          <CharString index="92">
            -20 hstemhm
            -40 callsubr
            return
          </CharString>
          <CharString index="93">
            -10 -10 5 0 hvcurveto
            return
          </CharString>
          <CharString index="94">
            85 100 250 100 return
          </CharString>
          <CharString index="95">
            rmoveto
            -60 -95 40 hlineto
            return
          </CharString>
          <CharString index="96">
            21 8 callsubr
            return
          </CharString>
          <CharString index="97">
            110 -15 100 -20 110 hintmask 11001000
            return
          </CharString>
          <CharString index="98">
            -10 70 160 70 150 70 hstem
            return
          </CharString>
          <CharString index="99">
            -20 -2 callgsubr
            return
          </CharString>
          <CharString index="100">
            -150 rlineto
            return
          </CharString>
          <CharString index="101">
            -130 rlineto
            return
          </CharString>
          <CharString index="102">
            -100 -630 -220 630 -100 -630 -220 630 -100 return
          </CharString>
          <CharString index="103">
            -10 60 -29 -21 290 60 0 60 240 60 -10 -20 hstemhm
            return
          </CharString>
          <CharString index="104">
            55 45 -45 -110 hvcurveto
            -200 hlineto
            110 45 45 55 vhcurveto
            return
          </CharString>
          <CharString index="105">
            hstem
            90 100 return
          </CharString>
          <CharString index="106">
            hintmask 10100000
            -41 -180 -10 callgsubr
            hintmask 01100000
            41 -6 callgsubr
            return
          </CharString>
          <CharString index="107">
            -55 callsubr
            hintmask 11101100
            return
          </CharString>
          <CharString index="108">
            60 280 -20 hstem
            125 90 return
          </CharString>
          <CharString index="109">
            -327 -109 -21 141 -21 return
          </CharString>
          <CharString index="110">
            120 hstem
            -1 callgsubr
            return
          </CharString>
          <CharString index="111">
            -65 callgsubr
            hstem
            return
          </CharString>
          <CharString index="112">
            -87 0 70 360 70 return
          </CharString>
          <CharString index="113">
            0 hvcurveto
            5 hlineto
            return
          </CharString>
          <CharString index="114">
            70 190 70 return
          </CharString>
          <CharString index="115">
            -21 630 70 return
          </CharString>
          <CharString index="116">
            90 140 90 return
          </CharString>
          <CharString index="117">
            130 rlineto
            return
          </CharString>
          <CharString index="118">
            100 260 return
          </CharString>
          <CharString index="119">
            510 rmoveto
            return
          </CharString>
          <CharString index="120">
            8 -12 callgsubr
            70 375 75 -10 -20 hstemhm
            return
          </CharString>
          <CharString index="121">
            110 hstemhm
            return
          </CharString>
          <CharString index="122">
            260 rmoveto
            return
          </CharString>
          <CharString index="123">
            -202 -170 70 345 70 345 70 hstemhm
            return
          </CharString>
          <CharString index="124">
            hstem
            -40 callsubr
            vstem
            475 500 rmoveto
            return
          </CharString>
          <CharString index="125">
            -21 130 -8 callsubr
            return
          </CharString>
          <CharString index="126">
            140 60 60 return
          </CharString>
          <CharString index="127">
            10 -45 callgsubr
            return
          </CharString>
          <CharString index="128">
            -130 -130 return
          </CharString>
          <CharString index="129">
            140 -80 80 return
          </CharString>
          <CharString index="130">
            rlineto
            120 hlineto
            return
          </CharString>
          <CharString index="131">
            180 100 return
          </CharString>
          <CharString index="132">
            700 rlineto
            return
          </CharString>
          <CharString index="133">
            75 54 55 115 6 hvcurveto
            25 470 rlineto
            return
          </CharString>
          <CharString index="134">
            hlineto
            20 20 rlineto
            15 vlineto
            175 -85 85 return
          </CharString>
          <CharString index="135">
            45 60 rmoveto
            -14 callsubr
            -10 hlineto
            return
          </CharString>
        <CharString name=".notdef">
          -257 endchar
        </CharString>
        <CharString name="A">
          -68 callgsubr
          hstem
          -107 callsubr
          endchar
        </CharString>
        <CharString name="AE">
          288 0 70 130 70 60 70 -42 callsubr
          hstem
          395 100 vstem
          785 hmoveto
          70 -290 260 -42 callsubr
          -230 230 290 70 -510 vlineto
          -295 -700 -10 callgsubr
          85 200 rlineto
          230 -200 hlineto
          -50 630 rmoveto
          50 -360 -200 hlineto
          endchar
        </CharString>
        <CharString name="Aacute">
          -68 callgsubr
          70 -39 callsubr
          hintmask 11100000
          -107 callsubr
          hintmask 00010000
          92 650 rmoveto
          -25 callgsubr
          65 hlineto
          90 -44 callgsubr
        </CharString>
        <CharString name="Abreve">
          -68 callgsubr
          80 -34 callsubr
          135 -19 callsubr
          hintmask 11100000
          -107 callsubr
          hintmask 00010110
          95 570 rmoveto
          hintmask 00001110
          -94 callsubr
          hintmask 00010110
          -43 callsubr
        </CharString>
        <CharString name="Acircumflex">
          -68 callgsubr
          91 -61 callgsubr
          hstemhm
          hintmask 11100000
          -107 callsubr
          hintmask 00011000
          60 630 -99 callsubr
        </CharString>
        <CharString name="Adieresis">
          -68 callgsubr
          75 14 callsubr
          140 -40 callgsubr
          hintmask 11100000
          -107 callsubr
          hintmask 00011100
          60 560 -106 callgsubr
        </CharString>
        <CharString name="Agrave">
          -68 callgsubr
          70 -39 callsubr
          hintmask 11100000
          -107 callsubr
          hintmask 00010000
          -23 650 -91 callsubr
        </CharString>
        <CharString name="Amacron">
          -68 callgsubr
          100 70 hstemhm
          hintmask 11100000
          -107 callsubr
          hintmask 00010000
          -40 600 -70 callgsubr
        </CharString>
        <CharString name="Aogonek">
          48 -47 callsubr
          -66 callgsubr
          hstemhm
          435 70 hintmask 00111000
          -107 callsubr
          hintmask 10000100
          350 -350 -46 callgsubr
          hintmask 01000100
          -97 callsubr
          hintmask 10000100
          -48 callgsubr
        </CharString>
        <CharString name="Aring">
          -68 callgsubr
          60 50 90 50 hstemhm
          185 60 80 60 hintmask 11100000
          -107 callsubr
          hintmask 00011110
          95 630 rmoveto
          -94 callgsubr
        </CharString>
        <CharString name="Atilde">
          -68 callgsubr
          70 -35 callsubr
          hintmask 11100000
          -107 callsubr
          hintmask 00001000
          177 610 -64 callgsubr
        </CharString>
        <CharString name="B">
          -90 callsubr
        </CharString>
        <CharString name="C">
          -12 -66 callsubr
          hstem
          55 100 vstem
          -101 callsubr
          endchar
        </CharString>
        <CharString name="Cacute">
          -12 -66 callsubr
          40 -39 callsubr
          55 100 hintmask 11010000
          -101 callsubr
          hintmask 00100000
          260 550 rmoveto
          -25 callgsubr
          65 hlineto
          90 -44 callgsubr
        </CharString>
        <CharString name="Ccaron">
          -12 -66 callsubr
          71 -61 callgsubr
          hstemhm
          55 100 hintmask 11001000
          -101 callsubr
          hintmask 00110000
          287 410 -102 callsubr
        </CharString>
        <CharString name="Ccedilla">
          -12 -38 callgsubr
          -30 -46 callsubr
          hstemhm
          55 100 100 23 callgsubr
          hintmask 00011100
          -101 callsubr
          hintmask 10100010
          260 -330 -12 callsubr
          hintmask 11000001
          -53 callsubr
          hintmask 11000010
          -92 callgsubr
        </CharString>
        <CharString name="D">
          58 0 70 560 70 hstem
          90 -11 callgsubr
          240 hmoveto
          -18 callsubr
          100 250 250 -100 100 -190 hvcurveto
          -150 -700 hlineto
          100 70 rmoveto
          560 -56 callgsubr
          endchar
        </CharString>
        <CharString name="Dcaron">
          58 0 70 560 70 81 18 callsubr
          240 100 hintmask 11001100
          240 hmoveto
          -18 callsubr
          100 250 250 -100 100 -190 hvcurveto
          -150 -700 hlineto
          100 70 rmoveto
          560 -56 callgsubr
          hintmask 00110000
          62 690 -102 callsubr
        </CharString>
        <CharString name="Dcroat">
          -79 callsubr
        </CharString>
        <CharString name="E">
          -84 callsubr
          -2 callsubr
          vstem
          -100 callsubr
          endchar
        </CharString>
        <CharString name="Eacute">
          -84 callsubr
          50 150 -2 callgsubr
          hintmask 11101000
          -100 callsubr
          hintmask 00010000
          185 900 rmoveto
          -25 callgsubr
          65 hlineto
          90 -44 callgsubr
        </CharString>
        <CharString name="Ecaron">
          -84 callsubr
          81 18 callsubr
          hintmask 11100100
          -100 callsubr
          hintmask 00011000
          242 760 -102 callsubr
        </CharString>
        <CharString name="Ecircumflex">
          -84 callsubr
          81 18 callsubr
          hintmask 11100100
          -100 callsubr
          hintmask 00011000
          162 890 -99 callsubr
        </CharString>
        <CharString name="Edieresis">
          -84 callsubr
          65 110 -2 callgsubr
          -48 -40 callgsubr
          hintmask 11101000
          -100 callsubr
          hintmask 00010110
          162 820 -106 callgsubr
        </CharString>
        <CharString name="Edotaccent">
          -84 callsubr
          60 120 -2 callgsubr
          47 120 hintmask 11101000
          -100 callsubr
          hintmask 00010100
          267 820 rmoveto
          -49 callsubr
        </CharString>
        <CharString name="Egrave">
          -84 callsubr
          50 150 -2 callgsubr
          hintmask 11101000
          -100 callsubr
          hintmask 00010000
          90 900 -91 callsubr
        </CharString>
        <CharString name="Emacron">
          -84 callsubr
          90 70 -2 callgsubr
          hintmask 11101000
          -100 callsubr
          hintmask 00010000
          62 860 -70 callgsubr
        </CharString>
        <CharString name="Eogonek">
          -47 callsubr
          -84 callsubr
          -2 callgsubr
          30 70 hintmask 00111100
          -100 callsubr
          hintmask 10000010
          235 -100 -46 callgsubr
          hintmask 01000010
          -97 callsubr
          hintmask 10000010
          -48 callgsubr
        </CharString>
        <CharString name="Eth">
          -79 callsubr
        </CharString>
        <CharString name="Euro">
          18 -10 70 200 60 60 60 200 70 hstem
          85 100 vstem
          15 380 rmoveto
          70 -60 -65 hlineto
          -10 -60 rlineto
          79 hlineto
          -194 22 94 -76 140 hhcurveto
          12 callgsubr
          55 0 hvcurveto
          -96 callgsubr
          -70 -85 -63 50 150 -18 vhcurveto
          196 hlineto
          10 60 rlineto
          -210 60 214 hlineto
          10 60 rlineto
          -220 hlineto
          149 17 62 51 77 hhcurveto
          70 -69 callgsubr
          -110 -132 -93 -77 -193 -21 vhcurveto
          -64 hlineto
          endchar
        </CharString>
        <CharString name="F">
          -27 21 -21 320 70 240 70 hstem
          90 7 callgsubr
          hmoveto
          320 -42 callsubr
          -230 240 2 callgsubr
          endchar
        </CharString>
        <CharString name="G">
          38 -10 28 callgsubr
          130 215 vstemhm
          -30 callgsubr
          hintmask 11111000
          -91 callgsubr
          endchar
        </CharString>
        <CharString name="Gbreve">
          38 -10 70 250 -50 callsubr
          40 -34 callsubr
          55 100 -8 90 48 215 -143 90 hintmask 1110010100000000
          -30 callgsubr
          -91 callgsubr
          hintmask 0001001010000000
          -203 765 rmoveto
          hintmask 0000101010000000
          -94 callsubr
          hintmask 0001001010000000
          -43 callsubr
        </CharString>
        <CharString name="Gcommaaccent">
          38 -245 -42 callgsubr
          60 28 callgsubr
          97 110 -77 215 hintmask 00111101
          -30 callgsubr
          -91 callgsubr
          hintmask 11000010
          -248 -150 rmoveto
          -30 25 -25 25 vhcurveto
          -40 -50 -35 -38 callsubr
          -31 rlineto
          0 80 46 106 vvcurveto
          39 -25 25 -35 -25 -25 -25 -30 vhcurveto
          endchar
        </CharString>
        <CharString name="H">
          -59 callsubr
        </CharString>
        <CharString name="I">
          -27 callsubr
        </CharString>
        <CharString name="Iacute">
          -250 -8 callgsubr
          90 100 hintmask 11010000
          90 -62 callsubr
          hintmask 00100000
          57 200 rmoveto
          -25 callgsubr
          65 hlineto
          90 -44 callgsubr
        </CharString>
        <CharString name="Icircumflex">
          -257 -83 callsubr
          101 -61 callgsubr
          hstemhm
          85 100 hintmask 11001000
          85 -62 callsubr
          hintmask 00110000
          15 190 -99 callsubr
        </CharString>
        <CharString name="Idieresis">
          -267 -83 callsubr
          85 14 callsubr
          -15 -10 callsubr
          80 -62 callsubr
          hintmask 00110100
          15 120 -106 callgsubr
        </CharString>
        <CharString name="Idotaccent">
          -267 -83 callsubr
          80 120 hstemhm
          70 120 -110 100 hintmask 11001000
          80 -62 callsubr
          hintmask 00110000
          110 120 rmoveto
          -49 callsubr
        </CharString>
        <CharString name="Igrave">
          -249 -8 callgsubr
          88 100 hintmask 11010000
          88 -62 callsubr
          hintmask 00100000
          -68 200 -91 callsubr
        </CharString>
        <CharString name="Imacron">
          -267 -83 callsubr
          100 70 hstemhm
          80 100 hintmask 11010000
          80 -62 callsubr
          hintmask 00100000
          -85 150 -70 callgsubr
        </CharString>
        <CharString name="Iogonek">
          -257 -47 callsubr
          -83 callsubr
          hstemhm
          65 70 -50 100 hintmask 00110100
          85 -62 callsubr
          hintmask 10001000
          85 -800 -46 callgsubr
          hintmask 01001000
          -97 callsubr
          hintmask 10001000
          -48 callgsubr
        </CharString>
        <CharString name="Itilde">
          -277 -83 callsubr
          100 -35 callsubr
          75 100 hintmask 11000100
          75 -62 callsubr
          hintmask 00010000
          132 190 -97 callgsubr
        </CharString>
        <CharString name="J">
          -102 -48 callsubr
          hstem
          240 100 vstem
          -78 callgsubr
          endchar
        </CharString>
        <CharString name="Jcircumflex">
          -117 -48 callsubr
          81 -61 callgsubr
          hstemhm
          240 100 hintmask 11001000
          -78 callgsubr
          hintmask 00110000
          125 810 -99 callsubr
        </CharString>
        <CharString name="K">
          28 -83 callsubr
          hstem
          90 100 vstem
          -49 callgsubr
          endchar
        </CharString>
        <CharString name="Kcommaaccent">
          28 -36 callgsubr
          700 -8 callsubr
          47 110 hintmask 00111000
          -49 callgsubr
          hintmask 11000100
          -303 -65 rmoveto
          -30 25 -25 25 vhcurveto
          -40 -50 -35 -38 callsubr
          -31 rlineto
          0 80 46 106 vvcurveto
          39 -25 25 -35 -25 -25 -25 -30 vhcurveto
          endchar
        </CharString>
        <CharString name="L">
          -37 0 70 630 -29 callgsubr
          vstem
          90 700 -41 callsubr
          endchar
        </CharString>
        <CharString name="Lacute">
          -37 0 20 callgsubr
          70 150 -2 callgsubr
          hintmask 11010000
          90 700 -41 callsubr
          hintmask 00100000
          -25 200 rmoveto
          -25 callgsubr
          65 hlineto
          90 -44 callgsubr
        </CharString>
        <CharString name="Lcaron">
          -37 0 70 435 -21 216 -8 callsubr
          75 110 hintmask 01101000
          265 645 rmoveto
          -30 25 -25 25 vhcurveto
          -40 -50 -35 -38 callsubr
          -31 rlineto
          0 80 46 106 vvcurveto
          39 -25 25 -35 -25 -25 -25 -30 vhcurveto
          hintmask 10110000
          -175 55 -41 callsubr
          endchar
        </CharString>
        <CharString name="Lcommaaccent">
          -37 -245 -42 callgsubr
          70 70 630 -8 callsubr
          42 110 hintmask 00111000
          90 700 -41 callsubr
          hintmask 11000100
          42 -805 rmoveto
          -30 25 -25 25 vhcurveto
          -40 -50 -35 -38 callsubr
          -31 rlineto
          0 80 46 106 vvcurveto
          39 -25 25 -35 -25 -25 -25 -30 vhcurveto
          endchar
        </CharString>
        <CharString name="Lslash">
          -55 0 20 callgsubr
          hstemhm
          15 167 -100 100 -100 213 hintmask 11010000
          82 -24 callgsubr
          -320 vlineto
          hintmask 11100000
          -67 -50 rlineto
          -110 vlineto
          hintmask 11010000
          67 50 rlineto
          -270 380 70 -280 275 vlineto
          hintmask 11001000
          113 85 rlineto
          110 vlineto
          hintmask 11100000
          -113 -85 rlineto
          245 vlineto
          endchar
        </CharString>
        <CharString name="M">
          -89 callgsubr
        </CharString>
        <CharString name="N">
          6 callgsubr
          hstem
          90 100 250 100 vstem
          430 hmoveto
          -101 callgsubr
          endchar
        </CharString>
        <CharString name="Nacute">
          6 callgsubr
          60 150 -2 callgsubr
          250 100 hintmask 11011000
          430 hmoveto
          -101 callgsubr
          hintmask 00100000
          92 445 rmoveto
          -25 callgsubr
          65 hlineto
          90 -44 callgsubr
        </CharString>
        <CharString name="Ncaron">
          6 callgsubr
          91 18 callsubr
          250 100 hintmask 11001100
          430 hmoveto
          -101 callgsubr
          hintmask 00110000
          130 305 -102 callsubr
        </CharString>
        <CharString name="Ncommaaccent">
          103 -36 callgsubr
          700 -8 callsubr
          70 110 70 100 hintmask 00111010
          430 hmoveto
          -101 callgsubr
          hintmask 11000100
          40 -510 rmoveto
          -30 25 -25 25 vhcurveto
          -40 -50 -35 -38 callsubr
          -31 rlineto
          0 80 46 106 vvcurveto
          39 -25 25 -35 -25 -25 -25 -30 vhcurveto
          endchar
        </CharString>
        <CharString name="Ntilde">
          6 callgsubr
          70 -35 callsubr
          90 100 250 100 hintmask 11000110
          430 hmoveto
          -101 callgsubr
          hintmask 00010000
          177 415 -97 callgsubr
        </CharString>
        <CharString name="O">
          73 -66 callsubr
          hstem
          55 100 290 100 vstem
          -106 callsubr
          endchar
        </CharString>
        <CharString name="OE">
          288 -84 callsubr
          hstem
          55 -11 callgsubr
          785 hmoveto
          70 -290 260 -42 callsubr
          -230 230 290 70 -440 vlineto
          -190 -100 -100 -250 -250 100 -100 190 hvcurveto
          70 vmoveto
          -120 -70 70 210 210 70 70 120 hvcurveto
          50 -560 hlineto
          endchar
        </CharString>
        <CharString name="Oacute">
          73 -66 callsubr
          40 150 -34 callgsubr
          hintmask 11011000
          -106 callsubr
          hintmask 00100000
          -248 550 rmoveto
          -25 callgsubr
          65 hlineto
          90 -44 callgsubr
        </CharString>
        <CharString name="Ocircumflex">
          73 -66 callsubr
          71 -61 callgsubr
          -34 callgsubr
          hintmask 11001100
          -106 callsubr
          hintmask 00110000
          -280 540 -99 callsubr
        </CharString>
        <CharString name="Odieresis">
          73 -66 callsubr
          55 14 callsubr
          55 100 0 -40 callgsubr
          5 100 hintmask 11010010
          -106 callsubr
          hintmask 00101100
          -280 470 -106 callgsubr
        </CharString>
        <CharString name="Ograve">
          73 -66 callsubr
          40 150 -34 callgsubr
          hintmask 11011000
          -106 callsubr
          hintmask 00100000
          -353 550 -91 callsubr
        </CharString>
        <CharString name="Ohungarumlaut">
          73 -66 callsubr
          40 150 -34 callgsubr
          hintmask 11011000
          -106 callsubr
          hintmask 00100000
          -298 550 -88 callsubr
        </CharString>
        <CharString name="Omacron">
          73 -66 callsubr
          80 70 -34 callgsubr
          hintmask 11011000
          -106 callsubr
          hintmask 00100000
          -380 510 -70 callgsubr
        </CharString>
        <CharString name="Oslash">
          73 -39 callgsubr
          640 70 -10 -20 -34 callgsubr
          hintmask 01101100
          60 hmoveto
          80 hlineto
          20 35 rlineto
          hintmask 10011100
          -31 38 48 -14 54 hhcurveto
          145 100 11 callsubr
          117 -20 86 -36 57 hvcurveto
          51 90 rlineto
          -80 hlineto
          -20 -35 rlineto
          hintmask 01101100
          31 -39 -47 14 -54 hhcurveto
          -145 -100 -100 -260 -118 20 -85 36 -58 hvcurveto
          44 261 rmoveto
          220 70 70 75 35 34 -15 -39 26 vhcurveto
          -224 -392 rlineto
          -10 41 -6 51 64 vvcurveto
          290 hmoveto
          hintmask 10101100
          -220 -70 -70 -75 -35 -34 15 38 -26 vhcurveto
          224 392 rlineto
          10 -40 6 -51 -64 vvcurveto
          endchar
        </CharString>
        <CharString name="Otilde">
          73 -66 callsubr
          50 70 -25 25 -25 70 -34 callgsubr
          hintmask 11000110
          -106 callsubr
          hintmask 00010000
          -163 520 -97 callgsubr
        </CharString>
        <CharString name="P">
          -73 callgsubr
        </CharString>
        <CharString name="Q">
          73 -155 70 -70 215 -27 callgsubr
          hstemhm
          55 100 95 100 95 100 cntrmask 00011100
          hintmask 10111100
          545 14 callgsubr
          260 -100 100 -145 -145 -100 -100 -260 -230 80 -105 115 -20 vhcurveto
          -90 60 -60 95 40 35 15 0 vhcurveto
          -20 65 rlineto
          -10 hlineto
          0 -15 -10 -20 -40 -25 25 55 vhcurveto
          115 20 80 105 230 vvcurveto
          -390 hmoveto
          220 70 70 75 75 70 -70 -220 vhcurveto
          hintmask 01111100
          -220 -70 -70 -75 -75 -70 -28 callgsubr
          vhcurveto
          endchar
        </CharString>
        <CharString name="R">
          -9 callgsubr
          -2 callsubr
          220 100 vstem
          -95 callgsubr
          endchar
        </CharString>
        <CharString name="Racute">
          -9 callgsubr
          50 150 -2 callgsubr
          220 100 hintmask 11101100
          -95 callgsubr
          hintmask 00010000
          20 570 rmoveto
          -25 callgsubr
          65 hlineto
          90 -44 callgsubr
        </CharString>
        <CharString name="Rcaron">
          -9 callgsubr
          81 18 callsubr
          220 100 hintmask 11100110
          -95 callgsubr
          hintmask 00011000
          47 430 -102 callsubr
        </CharString>
        <CharString name="Rcommaaccent">
          48 -36 callgsubr
          260 70 300 70 -2 callgsubr
          47 110 63 100 hintmask 00111101
          -95 callgsubr
          hintmask 11000010
          -23 -395 rmoveto
          -30 25 -25 25 vhcurveto
          -40 -50 -35 -38 callsubr
          -31 rlineto
          0 80 46 106 vvcurveto
          39 -25 25 -35 -25 -25 -25 -30 vhcurveto
          endchar
        </CharString>
        <CharString name="S">
          -22 -66 callsubr
          hstem
          45 8 callgsubr
          vstem
          -105 callsubr
          endchar
        </CharString>
        <CharString name="Sacute">
          -22 -66 callsubr
          40 -39 callsubr
          45 8 callgsubr
          hintmask 11011000
          -105 callsubr
          hintmask 00100000
          5 190 rmoveto
          -25 callgsubr
          65 hlineto
          90 -44 callgsubr
        </CharString>
        <CharString name="Scaron">
          -22 -66 callsubr
          71 -61 callgsubr
          hstemhm
          45 8 callgsubr
          hintmask 11001100
          -105 callsubr
          hintmask 00110000
          32 50 -102 callsubr
        </CharString>
        <CharString name="Scedilla">
          -22 -38 callgsubr
          -30 -46 callsubr
          hstemhm
          45 100 55 23 callgsubr
          20 100 hintmask 0001110010000000
          -105 callsubr
          hintmask 1010001000000000
          5 -690 -12 callsubr
          hintmask 1100000100000000
          -53 callsubr
          hintmask 1100001000000000
          -92 callgsubr
        </CharString>
        <CharString name="Scommaaccent">
          -22 -250 -42 callgsubr
          65 -46 callsubr
          hstemhm
          45 100 60 110 55 100 hintmask 00111010
          -105 callsubr
          hintmask 11000100
          -50 -820 rmoveto
          -30 25 -25 25 vhcurveto
          -40 -50 -35 -38 callsubr
          -31 rlineto
          0 80 46 106 vvcurveto
          39 -25 25 -35 -25 -25 -25 -30 vhcurveto
          endchar
        </CharString>
        <CharString name="T">
          -47 -11 callsubr
          hstem
          -18 callsubr
          vstem
          -60 callsubr
          endchar
        </CharString>
        <CharString name="Tcaron">
          -47 -11 callsubr
          81 -61 callgsubr
          hstemhm
          -18 callsubr
          hintmask 11001000
          -60 callsubr
          hintmask 00110000
          85 760 -102 callsubr
        </CharString>
        <CharString name="Tcommaaccent">
          -47 -255 -42 callgsubr
          101 8 callsubr
          hstemhm
          185 110 -105 100 hintmask 00110100
          -60 callsubr
          hintmask 11001000
          -5 -115 rmoveto
          -30 25 -25 25 vhcurveto
          -40 -50 -35 -38 callsubr
          -31 rlineto
          0 80 46 106 vvcurveto
          39 -25 25 -35 -25 -25 -25 -30 vhcurveto
          endchar
        </CharString>
        <CharString name="Thorn">
          88 1 -21 80 70 440 70 80 -29 callgsubr
          280 100 vstem
          280 570 rmoveto
          115 75 -75 -145 -145 -75 -75 -115 hvcurveto
          -90 440 hlineto
          150 vmoveto
          -100 -740 100 80 90 hlineto
          185 105 105 185 185 -105 105 -185 hvcurveto
          -90 hlineto
          endchar
        </CharString>
        <CharString name="U">
          93 -48 callsubr
          hstem
          -13 callsubr
          vstem
          -103 callgsubr
          endchar
        </CharString>
        <CharString name="Uacute">
          93 -48 callsubr
          50 -39 callsubr
          -13 callsubr
          hintmask 11011000
          -103 callgsubr
          hintmask 00100000
          7 820 rmoveto
          -25 callgsubr
          65 hlineto
          90 -44 callgsubr
        </CharString>
        <CharString name="Ucircumflex">
          93 -48 callsubr
          101 -61 callgsubr
          hstemhm
          -13 callsubr
          hintmask 11001100
          -103 callgsubr
          hintmask 00110000
          -35 830 -99 callsubr
        </CharString>
        <CharString name="Udieresis">
          93 -48 callsubr
          85 14 callsubr
          85 100 -20 -40 callgsubr
          -15 100 hintmask 11010010
          -103 callgsubr
          hintmask 00101100
          -35 760 -106 callgsubr
        </CharString>
        <CharString name="Ugrave">
          93 -48 callsubr
          50 -39 callsubr
          -13 callsubr
          hintmask 11011000
          -103 callgsubr
          hintmask 00100000
          -108 820 -91 callsubr
        </CharString>
        <CharString name="Uhungarumlaut">
          93 -48 callsubr
          60 -39 callsubr
          -13 callsubr
          hintmask 11011000
          -103 callgsubr
          hintmask 00100000
          -53 830 -88 callsubr
        </CharString>
        <CharString name="Umacron">
          93 -48 callsubr
          100 70 hstemhm
          -13 callsubr
          hintmask 11011000
          -103 callgsubr
          hintmask 00100000
          -135 790 -70 callgsubr
        </CharString>
        <CharString name="Uogonek">
          93 -47 callsubr
          -48 callsubr
          hstemhm
          85 100 50 70 130 100 hintmask 00111010
          -103 callgsubr
          hintmask 10000100
          30 -160 -46 callgsubr
          hintmask 01000100
          -97 callsubr
          hintmask 10000100
          -48 callgsubr
        </CharString>
        <CharString name="Uring">
          93 -48 callsubr
          50 50 90 50 hstemhm
          85 100 25 60 80 60 25 100 hintmask 11001001
          -103 callgsubr
          hintmask 00110110
          810 vmoveto
          -94 callgsubr
        </CharString>
        <CharString name="V">
          23 -83 callsubr
          hstem
          273 105 rmoveto
          0 -5 40 -8 30 vhcurveto
          -145 525 rlineto
          -100 hlineto
          195 -700 rlineto
          130 hlineto
          195 25 callsubr
          -100 hlineto
          -145 -525 rlineto
          -8 -30 -5 -40 0 vvcurveto
          endchar
        </CharString>
        <CharString name="W">
          333 -83 callsubr
          hstem
          490 -24 callgsubr
          -120 hlineto
          -115 -490 rlineto
          -7 -30 -4 -50 -83 callgsubr
          -3 50 -7 30 vhcurveto
          -115 490 rlineto
          -100 hlineto
          165 -700 23 callsubr
          115 490 rlineto
          7 30 6 50 -81 callsubr
          6 -50 7 -30 vhcurveto
          115 -490 23 callsubr
          165 25 callsubr
          -100 hlineto
          -115 -490 rlineto
          -7 -30 -3 -50 -83 callgsubr
          -4 50 -7 30 vhcurveto
          endchar
        </CharString>
        <CharString name="X">
          -87 callgsubr
        </CharString>
        <CharString name="Y">
          3 -83 callsubr
          hstem
          215 100 vstem
          -86 callgsubr
          endchar
        </CharString>
        <CharString name="Yacute">
          3 -83 callsubr
          50 -39 callsubr
          215 100 hintmask 11010000
          -86 callgsubr
          hintmask 00100000
          -153 180 rmoveto
          -25 callgsubr
          65 hlineto
          90 -44 callgsubr
        </CharString>
        <CharString name="Ydieresis">
          3 -83 callsubr
          85 14 callsubr
          120 -10 callsubr
          -86 callgsubr
          hintmask 00110100
          -195 120 -106 callgsubr
        </CharString>
        <CharString name="Z">
          4 callgsubr
          hstem
          -82 callsubr
          endchar
        </CharString>
        <CharString name="Zacute">
          4 callgsubr
          50 -39 callsubr
          hintmask 11000000
          -82 callsubr
          hintmask 00100000
          215 900 rmoveto
          -25 callgsubr
          65 hlineto
          90 -44 callgsubr
        </CharString>
        <CharString name="Zcaron">
          4 callgsubr
          81 -61 callgsubr
          hstemhm
          hintmask 11000000
          -82 callsubr
          hintmask 00110000
          252 760 -102 callsubr
        </CharString>
        <CharString name="Zdotaccent">
          4 callgsubr
          60 120 hstemhm
          182 120 hintmask 11000000
          -82 callsubr
          hintmask 00110000
          277 820 rmoveto
          -49 callsubr
        </CharString>
        <CharString name="a">
          -84 callgsubr
          -20 callgsubr
          hintmask 10111100
          -99 callgsubr
          hintmask 01111100
          -104 callsubr
          hintmask 10111100
          -95 callsubr
          endchar
        </CharString>
        <CharString name="aacute">
          -84 callgsubr
          40 150 -20 callgsubr
          hintmask 10110110
          -99 callgsubr
          hintmask 01110110
          -104 callsubr
          hintmask 10110110
          -95 callsubr
          hintmask 00001000
          -88 475 rmoveto
          -25 callgsubr
          65 hlineto
          90 -44 callgsubr
        </CharString>
        <CharString name="abreve">
          -84 callgsubr
          40 -34 callsubr
          45 100 -40 -19 callsubr
          -65 100 hintmask 1011001001000000
          -99 callgsubr
          hintmask 0111001001000000
          -104 callsubr
          hintmask 1011001001000000
          -95 callsubr
          hintmask 0000100110000000
          -85 385 rmoveto
          hintmask 0000010110000000
          -94 callsubr
          hintmask 0000100110000000
          -43 callsubr
        </CharString>
        <CharString name="acircumflex">
          -84 callgsubr
          71 -61 callgsubr
          -20 callgsubr
          hintmask 10110011
          -99 callgsubr
          hintmask 01110011
          -104 callsubr
          hintmask 10110011
          -95 callsubr
          hintmask 00001100
          -120 465 -99 callsubr
        </CharString>
        <CharString name="acute">
          -352 550 150 hstem
          55 -24 callgsubr
          -25 callgsubr
          65 hlineto
          90 -44 callgsubr
        </CharString>
        <CharString name="adieresis">
          -84 callgsubr
          55 14 callsubr
          45 100 -35 -40 callgsubr
          -55 100 hintmask 1011010010000000
          -99 callgsubr
          hintmask 0111010010000000
          -104 callsubr
          hintmask 1011010010000000
          -95 callsubr
          hintmask 0000101100000000
          -120 395 -106 callgsubr
        </CharString>
        <CharString name="ae">
          258 -10 10 callgsubr
          80 145 70 hstem
          -13 callgsubr
          200 100 vstem
          540 12 callsubr
          -60 -50 -30 -45 -35 hvcurveto
          45 -25 -50 30 -75 hhcurveto
          -100 -65 -55 0 hvcurveto
          -88 callgsubr
          60 65 40 -40 -80 vhcurveto
          -25 -80 vlineto
          -155 -60 -60 -90 -95 60 -60 105 110 67 80 0 hvcurveto
          -54 38 60 -26 65 hhcurveto
          22 callgsubr
          hvcurveto
          -96 callgsubr
          -60 -70 -50 50 105 vhcurveto
          280 27 callsubr
          -115 vhcurveto
          -70 vmoveto
          -3 callsubr
          -200 -315 rmoveto
          -95 callsubr
          endchar
        </CharString>
        <CharString name="afii10017">
          -68 callgsubr
          hstem
          -107 callsubr
          endchar
        </CharString>
        <CharString name="afii10018">
          43 0 70 280 70 210 70 -2 callsubr
          235 7 callgsubr
          420 rmoveto
          210 -14 callgsubr
          -45 callsubr
        </CharString>
        <CharString name="afii10019">
          -90 callsubr
        </CharString>
        <CharString name="afii10020">
          -37 -11 callsubr
          -17 callsubr
          endchar
        </CharString>
        <CharString name="afii10021">
          93 -150 220 -70 70 560 70 hstemhm
          115 110 -98 98 -18 callsubr
          hintmask 10101100
          140 -24 callgsubr
          hintmask 10110100
          -25 -450 rlineto
          -7 -125 -48 -55 0 vvcurveto
          -50 -220 85 hlineto
          hintmask 01101100
          15 150 rlineto
          375 hlineto
          hintmask 10101100
          -21 callgsubr
          hlineto
          -355 -630 rmoveto
          0 48 55 7 125 vhcurveto
          20 380 rlineto
          180 -560 hlineto
          endchar
        </CharString>
        <CharString name="afii10022">
          -84 callsubr
          -2 callsubr
          vstem
          -100 callsubr
          endchar
        </CharString>
        <CharString name="afii10023">
          -84 callsubr
          65 110 -2 callgsubr
          -50 110 75 110 hintmask 11111010
          -100 callsubr
          hintmask 11110110
          160 820 rmoveto
          32 -23 23 -32 -32 -23 -23 -32 -32 23 -23 32 32 23 23 32 vhcurveto
          185 hmoveto
          32 -23 23 -32 -32 -23 -23 -32 -32 23 -23 32 32 23 23 32 vhcurveto
          endchar
        </CharString>
        <CharString name="afii10024">
          333 16 callgsubr
          hstemhm
          380 100 hintmask 10101100
          480 -24 callgsubr
          -100 -305 -45 hlineto
          -55 -32 30 45 -8 hvcurveto
          -25 140 rlineto
          hintmask 10110100
          60 -11 -39 40 -65 hhcurveto
          hintmask 10101100
          -40 -20 0 callgsubr
          20 15 -15 -30 5 vhcurveto
          25 -140 rlineto
          14 -80 86 -10 0 vvcurveto
          0 -86 -15 -19 -85 vhcurveto
          -35 -160 rlineto
          -30 -7 -13 -15 -20 -30 callsubr
          -5 hlineto
          hintmask 01110100
          -10 -65 rlineto
          hintmask 10110100
          0 20 -10 40 65 37 40 60 13 vhcurveto
          35 160 rlineto
          45 10 30 30 50 hhcurveto
          55 hlineto
          hintmask 01110100
          -325 100 325 55 -71 callsubr
          -68 callsubr
          -45 hlineto
          endchar
        </CharString>
        <CharString name="afii10025">
          -7 -10 70 270 70 240 70 hstemhm
          355 100 -85 100 hintmask 11110000
          215 640 rmoveto
          90 50 -50 -70 -70 -50 -50 -80 hvcurveto
          -90 -70 90 hlineto
          hintmask 11101000
          95 50 -50 -85 -85 -50 -50 -115 -90 -70 callsubr
          130 175 80 80 115 160 -140 25 0 vhcurveto
          hintmask 11110000
          0 125 30 130 vvcurveto
          100 -80 80 -150 -120 -65 -55 0 vhcurveto
          -88 callgsubr
          80 vhcurveto
          endchar
        </CharString>
        <CharString name="afii10026">
          6 callgsubr
          hstem
          90 100 250 100 vstem
          -67 callsubr
          endchar
        </CharString>
        <CharString name="afii10027">
          6 callgsubr
          70 -34 callsubr
          90 100 -25 -19 callsubr
          -25 100 hintmask 11101001
          -67 callsubr
          125 810 rmoveto
          hintmask 11010110
          -94 callsubr
          hintmask 11101010
          -43 callsubr
        </CharString>
        <CharString name="afii10028">
          58 16 callgsubr
          hstemhm
          90 100 hintmask 10110100
          345 365 rmoveto
          -68 callsubr
          -60 hlineto
          hintmask 01101100
          305 -100 -700 100 325 70 -71 callsubr
          endchar
        </CharString>
        <CharString name="afii10029">
          83 -10 70 -39 8 callsubr
          hstemhm
          100 100 -85 97 208 100 hintmask 10101100
          28 callsubr
          hintmask 01101100
          -5 -65 rlineto
          hintmask 10101100
          0 25 -10 30 vhcurveto
          hintmask 01110100
          26 callsubr
          195 -630 100 700 -390 hlineto
          -30 -540 rlineto
          hintmask 10101100
          -75 -4 -26 -25 -25 hhcurveto
          endchar
        </CharString>
        <CharString name="afii10030">
          -89 callgsubr
        </CharString>
        <CharString name="afii10031">
          -59 callsubr
        </CharString>
        <CharString name="afii10032">
          73 -66 callsubr
          hstem
          55 100 290 100 vstem
          -106 callsubr
          endchar
        </CharString>
        <CharString name="afii10033">
          103 -11 callsubr
          -2 callsubr
          250 100 vstem
          90 -24 callgsubr
          -700 100 630 250 -630 100 700 vlineto
          endchar
        </CharString>
        <CharString name="afii10034">
          -73 callgsubr
        </CharString>
        <CharString name="afii10035">
          -12 -66 callsubr
          hstem
          55 100 vstem
          -101 callsubr
          endchar
        </CharString>
        <CharString name="afii10036">
          -47 -11 callsubr
          hstem
          -18 callsubr
          vstem
          -60 callsubr
          endchar
        </CharString>
        <CharString name="afii10037">
          9 -15 70 645 -20 hstem
          115 700 -76 callgsubr
        </CharString>
        <CharString name="afii10038">
          243 -9 -21 760 -20 hstem
          45 100 190 24 callgsubr
          cntrmask 00111000
          435 590 rmoveto
          115 -10 75 -75 -155 vvcurveto
          -155 -75 -75 -115 -10 vhcurveto
          -100 550 rmoveto
          -185 -10 -105 -105 -195 vvcurveto
          -195 105 -105 185 -10 vhcurveto
          -70 100 70 vlineto
          185 10 105 105 195 vvcurveto
          195 -105 105 -185 10 vhcurveto
          70 -100 vlineto
          -620 vmoveto
          -115 10 -75 75 155 vvcurveto
          155 75 75 115 10 vhcurveto
          endchar
        </CharString>
        <CharString name="afii10039">
          -87 callgsubr
        </CharString>
        <CharString name="afii10040">
          108 -31 callsubr
          240 100 hintmask 01111000
          500 hmoveto
          hintmask 10111000
          -21 callgsubr
          -100 -630 -240 630 -100 hlineto
          hintmask 01111000
          -700 vlineto
          endchar
        </CharString>
        <CharString name="afii10041">
          73 21 -21 260 70 370 -20 hstem
          60 100 250 100 vstem
          410 345 rmoveto
          0 -50 -15 -65 -85 -50 50 75 vhcurveto
          245 -100 -245 vlineto
          -115 80 -80 130 80 60 15 0 vhcurveto
          -275 100 700 -100 vlineto
          endchar
        </CharString>
        <CharString name="afii10042">
          393 0 70 630 -29 callgsubr
          220 100 220 100 cntrmask 00111000
          830 -24 callgsubr
          -5 callsubr
          -700 740 hlineto
          endchar
        </CharString>
        <CharString name="afii10043">
          408 -31 callsubr
          220 100 220 100 cntrmask 00011100
          hintmask 01111100
          800 hmoveto
          hintmask 10111100
          -21 callgsubr
          -5 callsubr
          hlineto
          hintmask 01111100
          -700 vlineto
          endchar
        </CharString>
        <CharString name="afii10044">
          93 0 70 300 7 callsubr
          hstemhm
          10 240 -100 100 235 100 hintmask 11110100
          10 630 rmoveto
          hintmask 11101100
          140 -630 190 hlineto
          165 80 80 140 22 callsubr
          -165 hvcurveto
          -90 260 hlineto
          hintmask 11110100
          -240 hlineto
          330 -330 rmoveto
          95 5 callgsubr
          -95 hvcurveto
          -90 300 hlineto
          endchar
        </CharString>
        <CharString name="afii10045">
          273 0 70 300 70 260 -20 hstem
          90 8 callgsubr
          95 100 vstem
          610 -62 callsubr
          -420 -260 rmoveto
          260 -100 -700 180 vlineto
          -50 callgsubr
          -100 -50 -50 -95 hvcurveto
          -80 300 hlineto
          endchar
        </CharString>
        <CharString name="afii10046">
          33 0 70 300 70 260 -29 callgsubr
          235 7 callgsubr
          25 callgsubr
          260 -100 -700 190 vlineto
          -50 callgsubr
          -100 -50 -50 -95 hvcurveto
          -90 300 hlineto
          endchar
        </CharString>
        <CharString name="afii10047">
          -12 -10 -50 callsubr
          250 70 hstem
          359 101 vstem
          460 14 callgsubr
          260 -100 100 -150 -110 -65 -55 0 vhcurveto
          -88 callgsubr
          70 85 65 -60 -190 9 vhcurveto
          -234 -70 235 hlineto
          -195 -5 -70 -65 -95 hhcurveto
          -70 -70 callsubr
          110 160 100 11 callsubr
          vhcurveto
          endchar
        </CharString>
        <CharString name="afii10048">
          283 -39 callgsubr
          320 70 250 70 -10 -8 callsubr
          95 100 270 100 hintmask 10110111
          520 710 rmoveto
          -130 -95 -90 -230 -10 hvcurveto
          -95 hlineto
          hintmask 01101111
          310 -100 -700 100 320 95 vlineto
          hintmask 10110111
          -240 10 95 -90 130 hhcurveto
          18 callgsubr
          hvcurveto
          -650 vmoveto
          -65 -70 -28 callgsubr
          220 70 70 65 65 70 -70 -220 -220 -70 -70 -65 hvcurveto
          endchar
        </CharString>
        <CharString name="afii10049">
          43 0 60 -49 -21 280 70 290 70 hstemhm
          55 8 callgsubr
          hintmask 10111100
          380 270 rmoveto
          -270 100 700 -175 vlineto
          -170 -80 -80 -135 -105 75 -75 75 -10 hvcurveto
          0 -60 -15 -20 -70 vhcurveto
          -30 -105 rlineto
          -30 -8 -17 -15 -15 -30 callsubr
          -5 hlineto
          -10 -65 rlineto
          hintmask 01111100
          0 20 -10 40 60 36 35 65 19 vhcurveto
          30 105 rlineto
          45 13 32 30 45 hhcurveto
          -10 70 rmoveto
          -100 -50 50 95 95 50 50 100 hvcurveto
          75 -290 hlineto
          endchar
        </CharString>
        <CharString name="afii10050">
          -37 -11 callsubr
          -70 170 -2 callgsubr
          hintmask 10110000
          400 800 rmoveto
          hintmask 11010000
          -10 -100 rlineto
          -300 -700 100 630 290 hlineto
          hintmask 10110000
          170 vlineto
          endchar
        </CharString>
        <CharString name="afii10051">
          113 -30 70 -19 -21 380 70 180 70 hstemhm
          140 100 250 100 hintmask 01111100
          590 255 rmoveto
          -32 callgsubr
          365 vlineto
          0 50 15 65 85 50 -50 -75 vhcurveto
          -125 vlineto
          hintmask 10111100
          -60 -30 -30 -45 -20 -25 10 0 vhcurveto
          -10 hlineto
          -10 -65 rlineto
          0 40 -15 45 90 65 65 95 vhcurveto
          endchar
        </CharString>
        <CharString name="afii10052">
          -37 -11 callsubr
          50 150 -17 callsubr
          205 900 rmoveto
          -25 callgsubr
          65 hlineto
          90 -44 callgsubr
        </CharString>
        <CharString name="afii10053">
          -12 -10 -50 callsubr
          250 70 hstem
          55 100 vstem
          55 14 callgsubr
          -260 100 -100 160 12 callgsubr
          55 0 vhcurveto
          -96 callgsubr
          -70 -95 -70 65 195 -5 vhcurveto
          235 70 -234 hlineto
          190 9 65 60 85 hhcurveto
          70 -69 callgsubr
          -110 -150 -26 callsubr
          endchar
        </CharString>
        <CharString name="afii10054">
          -22 -66 callsubr
          hstem
          45 8 callgsubr
          vstem
          -105 callsubr
          endchar
        </CharString>
        <CharString name="afii10055">
          -27 callsubr
        </CharString>
        <CharString name="afii10056">
          -277 -83 callsubr
          100 120 hstemhm
          -25 120 -15 100 -25 120 hintmask 11101000
          80 -62 callsubr
          hintmask 11110100
          15 -58 callsubr
        </CharString>
        <CharString name="afii10057">
          -102 -48 callsubr
          hstem
          240 100 vstem
          -78 callgsubr
          endchar
        </CharString>
        <CharString name="afii10058">
          354 -10 80 -49 -21 370 7 callsubr
          hstemhm
          12 188 -100 100 -85 97 198 101 235 100 hintmask 1011001110000000
          511 25 callgsubr
          260 -381 vlineto
          hintmask 0111010110000000
          -30 -540 rlineto
          -75 -4 -26 -25 -25 -30 callsubr
          -10 hlineto
          -5 -65 rlineto
          hintmask 1011001110000000
          0 25 -10 30 vhcurveto
          hintmask 0111100110000000
          26 callsubr
          185 -630 191 hlineto
          -50 callgsubr
          hvcurveto
          hintmask 1011001110000000
          -100 -50 -50 -95 vhcurveto
          -90 300 hlineto
          endchar
        </CharString>
        <CharString name="afii10059">
          373 0 70 280 70 280 -29 callgsubr
          240 100 235 100 vstem
          530 420 rmoveto
          280 -100 -280 -240 280 -100 -700 100 350 240 -350 -45 callsubr
        </CharString>
        <CharString name="afii10060">
          123 21 -21 380 70 180 70 hstem
          140 100 250 100 vstem
          240 365 rmoveto
          0 50 15 65 85 50 -50 -75 vhcurveto
          -255 100 255 vlineto
          -32 callgsubr
          vlineto
          endchar
        </CharString>
        <CharString name="afii10061">
          58 16 callgsubr
          60 150 -2 callgsubr
          hintmask 10110110
          295 890 rmoveto
          -25 callgsubr
          65 hlineto
          90 150 rlineto
          -55 -525 rmoveto
          0 81 10 14 80 vhcurveto
          25 140 rlineto
          30 5 15 15 20 hhcurveto
          10 10 -5 6 callsubr
          hintmask 10101110
          10 65 rlineto
          hintmask 10110110
          0 -20 10 -40 -65 -39 -40 -60 -11 vhcurveto
          -25 -140 rlineto
          -45 -8 -32 -30 -55 hhcurveto
          -60 hlineto
          hintmask 01101110
          305 -100 -700 100 325 70 vlineto
          50 30 -30 -45 10 hvcurveto
          35 -160 rlineto
          hintmask 10110110
          -60 13 37 -40 65 hhcurveto
          hintmask 01110110
          40 20 20 callsubr
          65 rlineto
          -5 hlineto
          hintmask 10110110
          0 -10 -5 -10 -20 -13 15 30 -7 vhcurveto
          -35 160 rlineto
          -19 85 -81 15 0 vvcurveto
          endchar
        </CharString>
        <CharString name="afii10062">
          9 -15 70 645 -20 60 -34 callsubr
          121 -19 callsubr
          hintmask 11101100
          271 800 rmoveto
          hintmask 11011100
          -94 callsubr
          hintmask 11101100
          -50 -20 -20 -40 vhcurveto
          -156 -100 -76 callgsubr
        </CharString>
        <CharString name="afii10065">
          -84 callgsubr
          -20 callgsubr
          hintmask 10111100
          -99 callgsubr
          hintmask 01111100
          -104 callsubr
          hintmask 10111100
          -95 callsubr
          endchar
        </CharString>
        <CharString name="afii10066">
          -2 -10 70 335 75 245 -20 hstem
          55 100 220 100 vstem
          470 630 rmoveto
          -15 85 -140 -25 rlineto
          -180 -32 -80 -78 -255 vvcurveto
          -95 vlineto
          -155 85 -85 125 125 85 85 155 155 -85 85 -100 -65 -50 -30 -50 -30 vhcurveto
          135 55 57 130 23 vhcurveto
          -65 -210 rmoveto
          60 50 -50 -115 -120 -50 -50 -60 -60 -50 50 120 115 50 50 60 hvcurveto
          endchar
        </CharString>
        <CharString name="afii10067">
          0 70 150 70 140 70 hstemhm
          75 100 170 100 -80 80 -80 100 hintmask 11111000
          350 15 callsubr
          0 95 20 90 vvcurveto
          70 -60 60 -120 vhcurveto
          -190 -500 190 hlineto
          hintmask 11110010
          19 callsubr
          75 110 -115 15 0 hvcurveto
          -85 170 rmoveto
          hintmask 11111000
          50 30 -30 -40 -40 -30 -30 -50 hvcurveto
          -90 140 hlineto
          90 -210 rmoveto
          hintmask 11110100
          70 30 -30 -45 -45 -30 -30 -70 hvcurveto
          -90 150 hlineto
          endchar
        </CharString>
        <CharString name="afii10068">
          -112 -18 callgsubr
          70 -23 callgsubr
          endchar
        </CharString>
        <CharString name="afii10069">
          33 -140 210 -70 70 360 70 hstemhm
          117 98 145 100 hintmask 10111000
          125 500 rmoveto
          -15 -280 rlineto
          -5 -95 -50 -55 0 vvcurveto
          -50 -210 85 hlineto
          hintmask 01111000
          15 140 rlineto
          325 hlineto
          hintmask 10111000
          -22 callgsubr
          hlineto
          -305 -430 rmoveto
          0 50 55 5 95 vhcurveto
          10 210 rlineto
          140 -360 hlineto
          endchar
        </CharString>
        <CharString name="afii10070">
          -22 -77 callsubr
          hstem
          50 100 210 100 cntrmask 11100000
          -107 callgsubr
          endchar
        </CharString>
        <CharString name="afii10071">
          -22 -77 callsubr
          55 14 callsubr
          50 100 -34 110 64 110 -40 100 hintmask 11111010
          255 12 callsubr
          -120 -85 -85 -175 -175 85 -85 135 22 callgsubr
          hvcurveto
          -96 callgsubr
          -60 -80 -50 50 105 vhcurveto
          290 hlineto
          hintmask 11111001
          20 20 rlineto
          15 vlineto
          175 -85 85 -120 vhcurveto
          -70 vmoveto
          60 45 -45 -110 hvcurveto
          -210 hlineto
          110 45 45 60 vhcurveto
          hintmask 11110110
          -29 180 rmoveto
          32 -23 23 -32 -32 -23 -23 -32 -32 23 -23 32 32 23 23 32 vhcurveto
          174 hmoveto
          32 -23 23 -32 -32 -23 -23 -32 -32 23 -23 32 32 23 23 32 vhcurveto
          endchar
        </CharString>
        <CharString name="afii10072">
          213 -43 callgsubr
          hstemhm
          320 100 hintmask 10110100
          615 325 rmoveto
          -58 callgsubr
          -35 hlineto
          hintmask 10101100
          210 -100 -210 -35 vlineto
          -38 -20 20 30 -7 hvcurveto
          -20 85 rlineto
          hintmask 10110100
          55 -13 -30 30 -57 hhcurveto
          hintmask 10101100
          -35 -25 0 callgsubr
          15 10 -10 -20 5 vhcurveto
          20 -85 rlineto
          -57 13 61 -8 6 hhcurveto
          -9 -2 -66 -13 -15 -60 -25 -95 rcurveline
          -20 -5 -10 -10 -15 -30 callsubr
          -5 hlineto
          hintmask 01110100
          -10 -65 rlineto
          hintmask 10110100
          0 25 -10 35 55 31 31 54 14 vhcurveto
          25 95 rlineto
          30 8 22 20 35 hhcurveto
          45 hlineto
          hintmask 01110100
          -220 100 220 45 -61 callsubr
          -16 61 -68 13 -6 1 rlinecurve
          7 1 60 8 13 56 rrcurveto
          endchar
        </CharString>
        <CharString name="afii10073">
          -77 -9 callsubr
          295 110 vstem
          200 12 callsubr
          -110 -60 -55 0 hvcurveto
          35 -60 rlineto
          10 hlineto
          0 45 45 70 75 30 -30 -45 -45 -30 -30 -60 vhcurveto
          -85 -70 85 hlineto
          70 30 -30 -50 -50 -30 -30 -85 -80 -70 callsubr
          120 145 60 60 80 115 -115 15 0 vhcurveto
          0 105 25 90 vvcurveto
          75 -60 60 -135 vhcurveto
          endchar
        </CharString>
        <CharString name="afii10074">
          23 -62 callgsubr
          -40 callsubr
          vstem
          -67 callgsubr
          endchar
        </CharString>
        <CharString name="afii10075">
          23 -54 callgsubr
          70 -34 callsubr
          75 100 -50 -19 callsubr
          -50 100 hintmask 11101001
          -67 callgsubr
          100 610 rmoveto
          hintmask 11010110
          -94 callsubr
          hintmask 11101010
          -43 callsubr
        </CharString>
        <CharString name="afii10076">
          -43 callgsubr
          hstemhm
          75 100 hintmask 10110100
          305 15 callsubr
          0 66 5 14 60 vhcurveto
          -58 callgsubr
          -50 hlineto
          hintmask 01101100
          -26 callgsubr
          60 -61 callsubr
          rlineto
          -17 65 -73 10 0 vvcurveto
          endchar
        </CharString>
        <CharString name="afii10077">
          13 -39 callgsubr
          430 70 hstemhm
          12 183 170 100 hintmask 10111000
          28 callsubr
          hintmask 01111000
          -5 -65 rlineto
          hintmask 10111000
          -3 callgsubr
          155 hlineto
          hintmask 01111000
          -430 100 500 -350 vlineto
          -20 -340 rlineto
          hintmask 10111000
          -80 -5 -20 -20 -25 hhcurveto
          endchar
        </CharString>
        <CharString name="afii10078">
          173 -62 callgsubr
          75 100 350 100 vstem
          400 85 rmoveto
          95 -6 callgsubr
          16 31 14 39 -21 callsubr
          -40 -30 vvcurveto
          -265 100 500 -105 vlineto
          -150 -280 rlineto
          -10 -16 -8 -24 -83 callgsubr
          -8 24 -10 16 vhcurveto
          -150 280 rlineto
          -105 -500 100 265 hlineto
          30 -4 40 0 vhcurveto
          4 hlineto
          0 14 -39 16 -31 vhcurveto
          95 -180 rlineto
          endchar
        </CharString>
        <CharString name="afii10079">
          23 21 -21 220 70 210 -20 17 callsubr
          -100 -210 -200 -26 callgsubr
          200 -220 100 hlineto
          endchar
        </CharString>
        <CharString name="afii10080">
          3 4 callsubr
          50 -25 callsubr
          vstem
          -105 callgsubr
          endchar
        </CharString>
        <CharString name="afii10081">
          23 -18 callgsubr
          70 17 callsubr
          -400 -500 100 430 200 -430 100 hlineto
          endchar
        </CharString>
        <CharString name="afii10082">
          -86 callsubr
        </CharString>
        <CharString name="afii10083">
          -72 4 callsubr
          50 100 vstem
          -100 callgsubr
          endchar
        </CharString>
        <CharString name="afii10084">
          -107 -18 callgsubr
          70 hstem
          160 100 vstem
          410 500 rmoveto
          -400 -70 150 -430 100 430 150 hlineto
          endchar
        </CharString>
        <CharString name="afii10085">
          -52 -210 70 161 -19 callgsubr
          hstem
          -103 callsubr
          endchar
        </CharString>
        <CharString name="afii10086">
          153 13 callgsubr
          45 100 145 100 145 100 cntrmask 00001110
          390 25 callgsubr
          90 -5 55 -55 -130 vvcurveto
          -130 -55 -55 -90 -5 vhcurveto
          -100 450 rmoveto
          -155 -5 -90 -90 -165 vvcurveto
          -165 90 -90 155 -5 vhcurveto
          -190 100 190 vlineto
          155 5 90 90 165 vvcurveto
          165 -90 90 -155 5 vhcurveto
          190 -70 vlineto
          -30 -30 rlineto
          -610 vmoveto
          -90 5 -55 55 130 vvcurveto
          130 55 55 90 5 vhcurveto
          endchar
        </CharString>
        <CharString name="afii10087">
          -87 callsubr
        </CharString>
        <CharString name="afii10088">
          38 -31 callgsubr
          190 100 hintmask 01111000
          435 hmoveto
          hintmask 10111000
          -22 callgsubr
          -100 -430 -190 430 -100 hlineto
          hintmask 01111000
          -500 vlineto
          endchar
        </CharString>
        <CharString name="afii10089">
          -7 0 235 -70 70 265 -20 hstemhm
          55 24 callgsubr
          hintmask 01111000
          230 170 rmoveto
          65 50 15 0 hvcurveto
          hintmask 10111000
          -185 100 15 callgsubr
          -245 vlineto
          0 -40 -15 -50 -60 -40 40 55 vhcurveto
          165 -100 -165 vlineto
          hintmask 01111000
          -95 70 -70 105 vhcurveto
          endchar
        </CharString>
        <CharString name="afii10090">
          263 0 70 430 -20 hstem
          75 100 170 100 170 100 cntrmask 00111000
          715 500 rmoveto
          -5 callgsubr
          -500 640 hlineto
          endchar
        </CharString>
        <CharString name="afii10091">
          288 -31 callgsubr
          170 100 170 100 cntrmask 00011100
          hintmask 01111100
          685 hmoveto
          hintmask 10111100
          -22 callgsubr
          -5 callgsubr
          hlineto
          hintmask 01111100
          -500 vlineto
          endchar
        </CharString>
        <CharString name="afii10092">
          28 0 7 callsubr
          100 70 hstemhm
          10 230 -18 callsubr
          vstemhm
          240 330 rmoveto
          170 -230 -70 vlineto
          hintmask 11111000
          130 -430 190 hlineto
          -57 callgsubr
          -90 190 hlineto
          endchar
        </CharString>
        <CharString name="afii10093">
          183 0 7 callsubr
          170 -20 hstem
          75 100 24 callsubr
          80 100 vstem
          635 500 rmoveto
          -100 -500 100 hlineto
          -460 330 rmoveto
          170 -100 -500 180 vlineto
          -57 callgsubr
          -80 190 hlineto
          endchar
        </CharString>
        <CharString name="afii10094">
          -37 0 7 callsubr
          170 -20 hstem
          75 24 callgsubr
          vstem
          175 330 rmoveto
          170 -100 -500 190 vlineto
          -57 callgsubr
          -90 190 hlineto
          endchar
        </CharString>
        <CharString name="afii10095">
          -72 -9 callsubr
          304 101 vstem
          185 25 callgsubr
          64 45 -40 -110 10 hvcurveto
          -180 -70 180 hlineto
          -115 -5 -50 -45 -74 hhcurveto
          -60 -70 callsubr
          100 135 85 85 175 175 -85 85 -125 -100 -65 -55 0 vhcurveto
          -88 callgsubr
          60 vhcurveto
          endchar
        </CharString>
        <CharString name="afii10096">
          188 -43 callgsubr
          hstemhm
          75 100 80 100 210 100 hintmask 10110111
          665 -7 callgsubr
          175 -85 85 -120 -110 -85 -70 -150 -10 vhcurveto
          -80 hlineto
          hintmask 01101111
          -26 callgsubr
          80 vlineto
          hintmask 10110111
          -155 10 80 -75 115 hhcurveto
          120 85 85 175 hvcurveto
          -100 hmoveto
          -140 -50 -50 -55 -55 -74 callsubr
          55 55 50 -50 -140 vhcurveto
          endchar
        </CharString>
        <CharString name="afii10097">
          0 60 -49 -21 200 70 170 70 hstemhm
          50 100 185 100 hintmask 10111100
          335 190 rmoveto
          -190 100 500 -185 vlineto
          -140 -60 -60 -95 -115 120 -15 0 hvcurveto
          0 -46 -15 -14 -45 vhcurveto
          -20 -65 rlineto
          -20 -6 -10 -10 -14 -30 callsubr
          -5 hlineto
          -10 -65 rlineto
          hintmask 01111100
          0 25 -10 35 55 28 30 55 17 vhcurveto
          20 65 rlineto
          30 9 21 20 30 hhcurveto
          -15 70 rmoveto
          -70 -30 30 55 55 30 30 70 hvcurveto
          85 -170 hlineto
          endchar
        </CharString>
        <CharString name="afii10098">
          -112 -18 callgsubr
          70 -70 160 hstemhm
          75 100 hintmask 11010000
          75 hmoveto
          100 430 230 hlineto
          hintmask 10110000
          160 -80 vlineto
          hintmask 11010000
          -10 -90 rlineto
          -240 hlineto
          endchar
        </CharString>
        <CharString name="afii10099">
          28 -140 70 91 -21 375 75 70 70 110 -20 hstem
          90 9 callgsubr
          vstem
          315 -70 rmoveto
          -20 -20 10 -72 callsubr
          -10 -65 rlineto
          0 35 -15 45 90 65 65 95 vhcurveto
          260 -22 callsubr
          120 135 70 -135 110 -70 vlineto
          -30 -30 rlineto
          -80 -65 -70 65 -520 100 315 vlineto
          -29 callsubr
          55 40 -40 -55 vhcurveto
          -260 vlineto
          -60 -30 -30 -45 vhcurveto
          endchar
        </CharString>
        <CharString name="afii10100">
          -112 -18 callgsubr
          70 50 150 -23 callgsubr
          -165 270 rmoveto
          -25 callgsubr
          65 hlineto
          90 -44 callgsubr
        </CharString>
        <CharString name="afii10101">
          -72 -9 callsubr
          50 101 vstem
          270 25 callgsubr
          60 -69 callgsubr
          -100 -125 -85 -85 -175 -175 85 -85 135 22 callgsubr
          vhcurveto
          -96 callgsubr
          -60 -74 -50 45 115 -5 vhcurveto
          180 70 -180 hlineto
          110 10 45 40 64 hhcurveto
          endchar
        </CharString>
        <CharString name="afii10102">
          -67 4 callsubr
          45 100 24 callsubr
          vstem
          -104 callgsubr
          endchar
        </CharString>
        <CharString name="afii10103">
          -63 callgsubr
        </CharString>
        <CharString name="afii10104">
          -277 -54 callgsubr
          100 120 hstemhm
          -25 120 -20 100 -20 120 hintmask 11101000
          75 -79 callgsubr
          hintmask 11110100
          -80 -58 callsubr
        </CharString>
        <CharString name="afii10105">
          -82 callgsubr
        </CharString>
        <CharString name="afii10106">
          233 -10 80 -49 -21 260 70 100 70 hstemhm
          12 183 150 24 callgsubr
          hintmask 01111110
          445 330 rmoveto
          170 -330 vlineto
          -20 -340 rlineto
          -80 -5 -20 -20 -25 -30 callsubr
          -10 hlineto
          -5 -65 rlineto
          hintmask 10111110
          -3 callgsubr
          135 hlineto
          hintmask 01111110
          -430 190 vlineto
          -17 callgsubr
          hvcurveto
          hintmask 10111110
          -65 -30 -30 -70 vhcurveto
          -90 190 hlineto
          endchar
        </CharString>
        <CharString name="afii10107">
          243 0 70 170 70 190 -20 hstem
          75 100 180 24 callgsubr
          vstem
          455 310 rmoveto
          190 -100 -190 -180 190 -100 -500 100 240 180 -240 190 vlineto
          19 callsubr
          95 95 -47 callgsubr
          -55 -55 -30 -30 -70 hvcurveto
          -90 170 hlineto
          endchar
        </CharString>
        <CharString name="afii10108">
          -80 callsubr
        </CharString>
        <CharString name="afii10109">
          -43 callgsubr
          60 -39 callsubr
          75 100 hintmask 10110110
          310 15 callsubr
          0 61 5 14 60 vhcurveto
          20 85 rlineto
          20 5 10 10 15 hhcurveto
          10 10 -5 6 callsubr
          hintmask 10101110
          10 65 rlineto
          hintmask 10110110
          0 -25 10 -35 -57 -30 -30 -55 -13 vhcurveto
          -20 -85 rlineto
          -30 -7 -20 -20 -38 hhcurveto
          -50 hlineto
          hintmask 01101110
          -26 callgsubr
          60 vlineto
          35 22 -20 -30 8 hvcurveto
          25 -95 rlineto
          hintmask 10110110
          -54 14 31 -31 55 hhcurveto
          hintmask 01110110
          35 25 20 callsubr
          65 rlineto
          -5 hlineto
          hintmask 10110110
          0 -10 -5 -10 -15 -10 10 20 -5 vhcurveto
          -25 95 rlineto
          -17 65 -68 10 0 vvcurveto
          -50 430 rmoveto
          -25 callgsubr
          65 hlineto
          90 -44 callgsubr
        </CharString>
        <CharString name="afii10110">
          -52 -210 70 161 -19 callgsubr
          60 -34 callsubr
          90 -19 callsubr
          hintmask 11110110
          -103 callsubr
          115 740 rmoveto
          hintmask 11101110
          -94 callsubr
          hintmask 11110110
          -43 callsubr
        </CharString>
        <CharString name="afii10145">
          103 -31 callsubr
          80 90 80 100 cntrmask 00011100
          hintmask 01111100
          265 hmoveto
          hintmask 10111100
          10 -7 callsubr
          80 hlineto
          hintmask 01111100
          10 150 rlineto
          175 700 -100 -630 -250 630 -100 -700 hlineto
          endchar
        </CharString>
        <CharString name="afii10193">
          23 -31 callgsubr
          55 90 55 100 cntrmask 00011100
          hintmask 01111100
          225 hmoveto
          hintmask 10111100
          10 -140 rlineto
          80 hlineto
          hintmask 01111100
          10 140 rlineto
          150 15 callgsubr
          -430 -200 430 -100 -500 hlineto
          endchar
        </CharString>
        <CharString name="afii61352">
          429 21 -21 220 70 60 60 240 50 10 -8 callsubr
          250 100 61 9 callsubr
          hintmask 1111011110000000
          621 220 rmoveto
          280 70 -280 hlineto
          -191 -290 rmoveto
          -101 callgsubr
          541 205 -76 callsubr
          hintmask 1110111110000000
          -93 callgsubr
          endchar
        </CharString>
        <CharString name="agrave">
          -84 callgsubr
          40 150 -20 callgsubr
          hintmask 10110110
          -99 callgsubr
          hintmask 01110110
          -104 callsubr
          hintmask 10110110
          -95 callsubr
          hintmask 00001000
          -203 475 -91 callsubr
        </CharString>
        <CharString name="amacron">
          -84 callgsubr
          80 70 -20 callgsubr
          hintmask 10110110
          -99 callgsubr
          hintmask 01110110
          -104 callsubr
          hintmask 10110110
          -95 callsubr
          hintmask 00001000
          -210 435 -70 callgsubr
        </CharString>
        <CharString name="ampersand">
          88 -39 callgsubr
          645 65 hstemhm
          30 100 -40 100 145 100 35 90 hintmask 10110110
          30 180 rmoveto
          -110 80 -80 130 75 70 25 45 55 vhcurveto
          hintmask 01101110
          50 -60 23 callsubr
          -105 125 rlineto
          35 55 20 65 75 vvcurveto
          -90 hlineto
          -50 -5 -45 -15 -35 vhcurveto
          -150 -6 callgsubr
          0 135 80 110 vvcurveto
          85 -65 65 -105 -110 -65 -65 -95 -90 85 -80 0 vhcurveto
          hintmask 10110110
          -75 -50 -70 -60 -90 vvcurveto
          230 -120 rmoveto
          -80 -50 50 70 55 40 40 55 40 hvcurveto
          170 -205 rlineto
          -35 -35 -45 -15 -55 hhcurveto
          hintmask 10101110
          -70 490 rmoveto
          65 30 30 45 40 30 -30 -55 -70 -85 -55 0 vhcurveto
          0 -60 60 55 vvcurveto
          endchar
        </CharString>
        <CharString name="aogonek">
          -22 -47 callsubr
          -84 callgsubr
          hstemhm
          45 100 180 70 -55 100 hintmask 0010111010000000
          -99 callgsubr
          hintmask 0001111010000000
          -104 callsubr
          hintmask 0010111010000000
          -95 callsubr
          hintmask 1000000100000000
          90 -325 -46 callgsubr
          hintmask 0100000100000000
          -97 callsubr
          hintmask 1000000100000000
          -48 callgsubr
        </CharString>
        <CharString name="apple">
          758 260 165 -149 -21 hstemhm
          185 30 0 170 330 160 0 36 0 160 hintmask 10100100
          185 15 callsubr
          165 vlineto
          -165 -165 rlineto
          hintmask 10010100
          365 80 rmoveto
          45 -40 40 -45 -45 -40 -40 -45 vhcurveto
          hintmask 01010100
          -45 40 -40 45 45 40 40 45 vhcurveto
          80 vmoveto
          90 -165 90 165 rlineto
          hintmask 10101010
          150 -160 rmoveto
          140 hlineto
          -140 140 rlineto
          -15 -140 rmoveto
          -90 165 -90 -165 rlineto
          355 160 rmoveto
          -140 hlineto
          140 -140 rlineto
          hintmask 10100100
          36 -20 rmoveto
          140 hlineto
          -140 140 rlineto
          hintmask 01101010
          160 20 rmoveto
          -140 hlineto
          140 -140 rlineto
          14 140 rmoveto
          90 -165 90 165 rlineto
          endchar
        </CharString>
        <CharString name="aring">
          -84 callgsubr
          50 50 90 50 hstemhm
          45 100 10 60 80 60 -15 100 hintmask 1011001001000000
          -99 callgsubr
          hintmask 0111001001000000
          -104 callsubr
          hintmask 1011001001000000
          -95 callsubr
          hintmask 0000110110000000
          -85 475 rmoveto
          -94 callgsubr
        </CharString>
        <CharString name="asciicircum">
          -97 461 -21 280 -20 hstem
          180 720 rmoveto
          -180 -280 -10 callgsubr
          115 180 115 -180 -10 callgsubr
          -180 280 rlineto
          endchar
        </CharString>
        <CharString name="asciitilde">
          -37 245 90 -25 25 hstemhm
          hintmask 01000000
          160 310 rmoveto
          hintmask 10000000
          60 30 -65 80 hhcurveto
          70 50 50 45 15 hvcurveto
          -55 50 rlineto
          -9 hlineto
          1 -27 -55 -45 hhcurveto
          hintmask 01000000
          -60 -30 65 -80 hhcurveto
          -70 -50 -50 -45 -15 hvcurveto
          55 -50 rlineto
          9 hlineto
          -1 27 55 45 hhcurveto
          endchar
        </CharString>
        <CharString name="asterisk">
          -117 361 -21 360 -20 hstem
          170 70 vstem
          30 580 rmoveto
          105 -60 -105 -60 35 -60 105 60 rlineto
          -120 70 120 vlineto
          105 -60 35 60 -105 60 105 60 -35 60 -105 -60 rlineto
          120 -70 -120 vlineto
          -105 60 rlineto
          endchar
        </CharString>
        <CharString name="at">
          403 -120 70 66 -21 60 75 330 75 115 70 hstem
          45 90 125 24 callgsubr
          145 90 vstem
          550 175 rmoveto
          0 -40 -45 -50 -55 -45 45 120 120 45 45 55 50 40 -55 0 vhcurveto
          -95 -525 rmoveto
          140 75 55 0 hvcurveto
          -35 60 rlineto
          -10 hlineto
          0 -60 -45 -100 -190 -140 140 210 210 140 140 190 190 140 -140 -210 -135 -55 -45 -45 -25 -20 20 0 vhcurveto
          385 -70 vlineto
          -10 -55 rlineto
          -5 hlineto
          0 -45 65 -85 -100 -75 -75 -165 -165 75 -75 100 80 50 55 0 vhcurveto
          5 hlineto
          0 35 -55 100 100 80 80 165 240 -180 180 -240 -240 -180 -180 -240 -240 180 -180 230 vhcurveto
          endchar
        </CharString>
        <CharString name="atilde">
          -84 callgsubr
          50 70 -25 25 -25 70 -20 callgsubr
          hintmask 1011000110000000
          -99 callgsubr
          hintmask 0111000110000000
          -104 callsubr
          hintmask 1011000110000000
          -95 callsubr
          hintmask 0000010000000000
          -3 445 rmoveto
          1 -17 -40 -30 hhcurveto
          hintmask 0000001000000000
          -30 -10 45 -50 hhcurveto
          -50 -25 -40 -45 -15 hvcurveto
          40 -25 rlineto
          9 hlineto
          -1 17 40 30 hhcurveto
          hintmask 0000100000000000
          30 10 -45 50 hhcurveto
          50 25 40 45 15 hvcurveto
          -40 25 rlineto
          endchar
        </CharString>
        <CharString name="b">
          8 -65 callsubr
          440 70 190 -20 hstemhm
          75 100 210 100 hintmask 10111100
          175 420 rmoveto
          0 40 20 55 65 50 -50 -140 -135 -50 -50 -55 -60 -45 60 0 vhcurveto
          -70 575 rmoveto
          -30 -30 rlineto
          hintmask 01111100
          -670 70 vlineto
          10 60 rlineto
          5 hlineto
          hintmask 10111100
          0 45 -70 100 95 85 85 175 175 -85 85 -115 -60 -50 -30 0 vhcurveto
          220 vlineto
          endchar
        </CharString>
        <CharString name="backslash">
          -117 -83 callsubr
          hstem
          100 -24 callgsubr
          -100 hlineto
          310 -700 -10 callgsubr
          endchar
        </CharString>
        <CharString name="bar">
          -247 -179 -21 900 -29 callgsubr
          vstem
          90 -24 callgsubr
          -900 100 900 vlineto
          endchar
        </CharString>
        <CharString name="braceleft">
          16 callsubr
          40 175 -100 100 -100 200 cntrmask 11100000
          hintmask 11110000
          40 245 rmoveto
          hintmask 11101000
          50 25 -25 -70 hvcurveto
          -180 vlineto
          -80 60 -60 105 vhcurveto
          hintmask 11100100
          35 70 -35 hlineto
          hintmask 11110000
          -40 -25 25 45 hvcurveto
          180 vlineto
          120 -80 10 0 vhcurveto
          0 80 10 120 vvcurveto
          180 vlineto
          45 25 25 40 vhcurveto
          hintmask 11100100
          35 70 -35 hlineto
          -105 -60 -60 -80 hvcurveto
          -180 vlineto
          hintmask 11110000
          -70 -25 -25 -50 vhcurveto
          endchar
        </CharString>
        <CharString name="braceright">
          16 callsubr
          10 200 -100 100 -100 175 cntrmask 11100000
          hintmask 11100100
          285 315 rmoveto
          hintmask 11110000
          -50 -25 25 70 hvcurveto
          180 vlineto
          80 -60 60 -105 vhcurveto
          -35 -70 35 hlineto
          hintmask 11101000
          40 25 -25 -45 hvcurveto
          -180 vlineto
          -120 80 -10 0 vhcurveto
          0 -80 -10 -120 vvcurveto
          -180 vlineto
          -45 -25 -25 -40 vhcurveto
          hintmask 11110000
          -35 -70 35 hlineto
          105 60 60 80 hvcurveto
          180 vlineto
          hintmask 11100100
          70 25 25 50 vhcurveto
          endchar
        </CharString>
        <CharString name="bracketleft">
          -217 -170 70 760 70 -2 callgsubr
          -100 200 hintmask 11010000
          290 -100 rmoveto
          hintmask 11100000
          -100 760 hlineto
          hintmask 11010000
          100 70 -200 -900 200 hlineto
          endchar
        </CharString>
        <CharString name="bracketright">
          -217 -170 70 760 70 hstemhm
          20 200 -100 100 hintmask 11100000
          20 -170 rmoveto
          200 900 -200 -70 hlineto
          hintmask 11010000
          100 -760 hlineto
          hintmask 11100000
          -100 hlineto
          endchar
        </CharString>
        <CharString name="breve">
          -207 560 -34 callsubr
          10 -19 callsubr
          hintmask 10110000
          160 620 rmoveto
          hintmask 01110000
          -94 callsubr
          hintmask 10110000
          -43 callsubr
        </CharString>
        <CharString name="brokenbar">
          -247 -179 -21 900 -20 hstem
          90 7 callgsubr
          -200 rmoveto
          380 -100 -380 vlineto
          100 900 rmoveto
          -100 -380 100 hlineto
          endchar
        </CharString>
        <CharString name="bullet">
          -157 190 240 hstem
          65 240 vstem
          305 310 rmoveto
          70 -50 50 -70 -70 -50 -50 -70 -70 50 -50 70 70 50 50 70 vhcurveto
          endchar
        </CharString>
        <CharString name="c">
          -72 4 callsubr
          50 100 vstem
          -100 callgsubr
          endchar
        </CharString>
        <CharString name="cacute">
          -72 -65 callgsubr
          40 -39 callsubr
          50 100 hintmask 11010000
          -100 callgsubr
          hintmask 00100000
          -13 15 callsubr
          -25 callgsubr
          65 hlineto
          90 -44 callgsubr
        </CharString>
        <CharString name="caron">
          -207 581 -61 callgsubr
          hstem
          195 560 -102 callsubr
        </CharString>
        <CharString name="ccaron">
          -72 -65 callgsubr
          71 -61 callgsubr
          hstemhm
          50 100 hintmask 11001000
          -100 callgsubr
          hintmask 00110000
          15 120 -102 callsubr
        </CharString>
        <CharString name="ccedilla">
          -72 -38 callgsubr
          -30 -54 callsubr
          hstemhm
          50 100 67 23 callgsubr
          hintmask 00011100
          -100 callgsubr
          hintmask 10100010
          7 -420 -12 callsubr
          hintmask 11000001
          -53 callsubr
          hintmask 11000010
          -92 callgsubr
        </CharString>
        <CharString name="cedilla">
          -332 -38 callgsubr
          hstemhm
          35 23 callgsubr
          hintmask 10110000
          95 20 -12 callsubr
          hintmask 11001000
          -53 callsubr
          hintmask 11010000
          -92 callgsubr
        </CharString>
        <CharString name="cent">
          -72 -70 130 380 120 hstem
          50 100 60 100 vstem
          210 560 rmoveto
          -55 vlineto
          -97 -21 -63 -84 -150 vvcurveto
          -148 60 -83 100 -22 vhcurveto
          -67 100 63 vlineto
          76 11 49 41 0 vvcurveto
          -96 callgsubr
          -60 -80 -74 callsubr
          70 60 50 -45 0 vhcurveto
          10 hlineto
          35 60 rlineto
          0 -44 37 -71 13 vhcurveto
          55 vlineto
          endchar
        </CharString>
        <CharString name="circumflex">
          -207 581 -61 callgsubr
          hstem
          125 690 -99 callsubr
        </CharString>
        <CharString name="colon">
          -327 -10 120 280 3 callsubr
          vstem
          40 50 -93 callsubr
          400 vmoveto
          -69 callsubr
        </CharString>
        <CharString name="comma">
          2 callsubr
          120 -20 hstem
          -77 callgsubr
          endchar
        </CharString>
        <CharString name="commaaccent">
          -397 -215 -42 callgsubr
          hstem
          10 110 vstem
          10 -75 rmoveto
          -30 25 -25 25 vhcurveto
          -40 -50 -35 -38 callsubr
          -31 rlineto
          0 80 46 106 vvcurveto
          39 -25 25 -35 -25 -25 -25 -30 vhcurveto
          endchar
        </CharString>
        <CharString name="copyright">
          333 -30 70 85 65 320 65 85 70 hstem
          40 -19 callsubr
          390 90 vstem
          -80 callgsubr
          -180 -310 rmoveto
          -150 75 -75 120 87 58 50 0 vhcurveto
          -30 50 rlineto
          -9 hlineto
          0 -46 -35 -50 -70 -45 45 115 115 45 45 60 50 46 -35 0 vhcurveto
          9 hlineto
          30 50 rlineto
          0 -58 50 -87 -110 -75 -75 -150 vhcurveto
          endchar
        </CharString>
        <CharString name="currency">
          48 21 -21 170 60 40 60 300 70 hstem
          100 -25 callsubr
          vstem
          20 170 rmoveto
          80 -170 100 170 250 60 -250 40 80 hlineto
          170 80 80 130 22 callsubr
          -170 hvcurveto
          -180 -370 -80 -60 80 -40 -80 hlineto
          24 callsubr
          rmoveto
          300 80 -37 callsubr
          endchar
        </CharString>
        <CharString name="d">
          8 -65 callsubr
          440 70 190 -20 -55 callsubr
          hintmask 10111100
          360 125 rmoveto
          0 -45 -60 -60 -55 -50 50 135 140 50 50 65 55 40 -20 0 vhcurveto
          250 vmoveto
          -190 vlineto
          0 -50 30 -60 -115 -85 -85 -175 -175 85 -85 95 100 45 70 0 vhcurveto
          5 hlineto
          hintmask 01111100
          10 -60 rlineto
          70 700 -70 hlineto
          endchar
        </CharString>
        <CharString name="dagger">
          -67 -179 -21 610 -28 callgsubr
          -20 hstem
          24 callsubr
          vstem
          180 -200 rmoveto
          100 610 -23 callsubr
        </CharString>
        <CharString name="daggerdbl">
          -67 -179 -21 220 70 320 -28 callgsubr
          -20 hstem
          24 callsubr
          vstem
          180 90 rmoveto
          -160 -70 160 -220 100 220 160 70 -160 320 -23 callsubr
        </CharString>
        <CharString name="dcaron">
          118 -65 callsubr
          440 70 -5 -42 callgsubr
          -55 callsubr
          65 110 hintmask 00011001
          525 645 rmoveto
          -30 25 -25 25 vhcurveto
          -40 -50 -35 -38 callsubr
          -31 rlineto
          0 80 46 106 vvcurveto
          39 -25 25 -35 -25 -25 -25 -30 vhcurveto
          hintmask 10101110
          -165 -520 rmoveto
          0 -45 -60 -60 -55 -50 50 135 140 50 50 65 55 40 -20 0 vhcurveto
          250 vmoveto
          -190 vlineto
          0 -50 30 -60 -115 -85 -85 -175 -175 85 -85 95 100 45 70 0 vhcurveto
          5 hlineto
          hintmask 01101110
          10 -60 rlineto
          70 700 -70 hlineto
          endchar
        </CharString>
        <CharString name="dcroat">
          18 -65 callsubr
          400 70 60 70 100 -20 -55 callsubr
          hintmask 10111110
          360 670 rmoveto
          -70 -105 -70 105 -90 vlineto
          0 -50 30 -60 -115 -85 -85 -155 -155 85 -85 95 100 45 70 0 vhcurveto
          5 hlineto
          hintmask 01111110
          10 -60 rlineto
          70 530 65 70 -65 100 -70 hlineto
          -30 -575 rmoveto
          hintmask 10111110
          0 -45 -60 -60 -55 -50 50 115 120 50 50 65 55 40 -20 0 vhcurveto
          endchar
        </CharString>
        <CharString name="degree">
          -147 370 65 210 65 hstem
          20 90 160 90 vstem
          360 540 rmoveto
          100 -70 70 -100 -100 -70 -70 -100 -100 70 -70 100 100 70 70 100 vhcurveto
          -90 hmoveto
          -70 -35 -35 -45 -45 -35 35 70 70 35 35 45 45 35 -35 -70 vhcurveto
          endchar
        </CharString>
        <CharString name="dieresis">
          -222 565 110 hstem
          10 -40 callgsubr
          vstem
          120 620 -106 callgsubr
        </CharString>
        <CharString name="divide">
          -57 100 120 70 80 70 120 hstem
          175 120 cntrmask 11100000
          440 290 rmoveto
          80 -410 -80 vlineto
          145 -130 -93 callsubr
          340 vmoveto
          -69 callsubr
        </CharString>
        <CharString name="dollar">
          -32 -70 130 580 130 hstem
          40 100 50 105 70 7 callgsubr
          -70 rmoveto
          105 65 hlineto
          111 19 59 73 103 220 -325 -40 160 vvcurveto
          60 50 50 75 90 50 -45 0 vhcurveto
          10 hlineto
          35 60 rlineto
          0 -52 43 -103 10 vhcurveto
          62 -105 -67 vlineto
          -95 -22 -55 -70 -91 -220 325 40 -160 vvcurveto
          -70 -50 -50 -90 -90 -60 45 0 vhcurveto
          -78 callsubr
          58 -42 102 -10 vhcurveto
          endchar
        </CharString>
        <CharString name="dotaccent">
          -387 560 120 hstem
          10 120 vstem
          130 620 rmoveto
          -49 callsubr
        </CharString>
        <CharString name="dotlessi">
          -277 -62 callgsubr
          75 100 vstem
          75 -79 callgsubr
          endchar
        </CharString>
        <CharString name="e">
          -22 -77 callsubr
          hstem
          50 100 210 100 cntrmask 11100000
          -107 callgsubr
          endchar
        </CharString>
        <CharString name="eacute">
          -22 -77 callsubr
          40 150 0 callsubr
          -107 callgsubr
          hintmask 00010000
          5 15 callsubr
          -25 callgsubr
          65 hlineto
          90 -44 callgsubr
        </CharString>
        <CharString name="ecaron">
          -22 -77 callsubr
          71 -61 callgsubr
          -55 callsubr
          hintmask 11100110
          -107 callgsubr
          hintmask 00011000
          32 120 -102 callsubr
        </CharString>
        <CharString name="ecircumflex">
          -22 -77 callsubr
          71 -61 callgsubr
          -55 callsubr
          hintmask 11100110
          -107 callgsubr
          hintmask 00011000
          -38 250 -99 callsubr
        </CharString>
        <CharString name="edieresis">
          -22 -77 callsubr
          55 14 callsubr
          50 100 -43 -40 callgsubr
          -32 100 hintmask 11101001
          -107 callgsubr
          hintmask 00010110
          -38 180 -106 callgsubr
        </CharString>
        <CharString name="edotaccent">
          -22 -77 callsubr
          50 120 hstemhm
          50 100 42 120 48 100 hintmask 11101010
          -107 callgsubr
          hintmask 00010100
          57 180 rmoveto
          -49 callsubr
        </CharString>
        <CharString name="egrave">
          -22 -77 callsubr
          40 150 0 callsubr
          -107 callgsubr
          hintmask 00010000
          -120 260 -91 callsubr
        </CharString>
        <CharString name="eight">
          33 -66 callsubr
          hstemhm
          40 100 -70 100 220 100 -70 100 hintmask 11100100
          280 330 rmoveto
          75 -30 65 -40 -80 vvcurveto
          -70 -50 -50 -90 -90 -50 50 70 80 65 40 75 30 vhcurveto
          80 vmoveto
          hintmask 11011000
          -60 20 -50 35 70 vvcurveto
          55 50 50 60 60 50 -50 -55 -70 -50 -35 -60 -20 vhcurveto
          -210 125 rmoveto
          -130 125 -35 0 vhcurveto
          hintmask 11100100
          0 -155 -35 -155 vvcurveto
          -100 90 -90 150 150 90 90 100 155 -155 35 0 vhcurveto
          hintmask 11011000
          0 125 35 130 vvcurveto
          95 -80 80 21 callsubr
          -80 -80 -95 vhcurveto
          endchar
        </CharString>
        <CharString name="ellipsis">
          53 -10 3 callsubr
          70 120 70 120 cntrmask 01110000
          40 50 -93 callsubr
          190 hmoveto
          -98 callgsubr
          190 hmoveto
          -69 callsubr
        </CharString>
        <CharString name="emacron">
          -22 -77 callsubr
          80 70 0 callsubr
          -107 callgsubr
          hintmask 00010000
          -128 220 -70 callgsubr
        </CharString>
        <CharString name="emdash">
          193 250 80 hstem
          690 -7 callgsubr
          80 -660 -80 vlineto
          endchar
        </CharString>
        <CharString name="endash">
          250 80 hstem
          480 -7 callgsubr
          80 -450 -80 vlineto
          endchar
        </CharString>
        <CharString name="eogonek">
          -22 -47 callsubr
          -77 callsubr
          hstemhm
          50 100 40 70 100 100 hintmask 00111101
          -107 callgsubr
          hintmask 10000010
          40 -540 -46 callgsubr
          hintmask 01000010
          -97 callsubr
          hintmask 10000010
          -48 callgsubr
        </CharString>
        <CharString name="equal">
          -57 200 80 100 80 hstem
          435 200 rmoveto
          80 -400 -80 vlineto
          400 180 rmoveto
          80 -400 -80 vlineto
          endchar
        </CharString>
        <CharString name="eth">
          -12 -10 70 325 75 253 -20 hstemhm
          40 100 220 100 -85 85 hintmask 11110100
          207 524 rmoveto
          63 -30 30 63 rlineto
          52 -35 23 -55 -77 vvcurveto
          50 -30 -50 20 -70 hhcurveto
          -100 -85 -85 -150 -150 85 -85 125 125 85 85 150 hvcurveto
          100 vlineto
          157 -44 92 -84 51 vhcurveto
          hintmask 11111000
          28 59 -64 29 -28 -59 -21 7 -23 5 -24 4 rlinecurve
          -60 10 -10 -70 55 -10 19 -4 17 -4 16 -5 rlinecurve
          13 -202 rmoveto
          60 50 -50 -110 -115 -50 -50 -60 -60 -50 50 115 110 50 50 60 hvcurveto
          endchar
        </CharString>
        <CharString name="exclam">
          -237 -10 120 590 -20 hstem
          95 100 vstem
          105 180 rmoveto
          80 hlineto
          20 520 rlineto
          -120 hlineto
          -650 vmoveto
          -69 callsubr
        </CharString>
        <CharString name="exclamdown">
          -237 -179 -21 590 120 hstem
          95 100 vstem
          85 -200 rmoveto
          120 hlineto
          -20 520 rlineto
          -80 hlineto
          -20 130 rmoveto
          -69 callsubr
        </CharString>
        <CharString name="f">
          -187 -18 callgsubr
          70 140 70 hstem
          85 100 vstem
          260 640 rmoveto
          45 45 -45 0 hvcurveto
          10 hlineto
          35 60 rlineto
          0 -60 55 -85 -100 -65 -65 -95 vhcurveto
          -50 -65 -70 65 -430 100 430 135 70 -135 50 vlineto
          60 30 30 45 vhcurveto
          endchar
        </CharString>
        <CharString name="five">
          -22 -10 70 300 70 200 70 hstem
          60 100 205 100 vstem
          60 390 rmoveto
          30 -30 23 callsubr
          105 5 callgsubr
          -105 -90 -70 callsubr
          130 165 80 80 140 22 callsubr
          -160 vhcurveto
          -65 200 279 70 -379 hlineto
          endchar
        </CharString>
        <CharString name="florin">
          -136 -200 70 560 70 140 70 hstem
          84 -40 rmoveto
          -60 -5 -30 -30 -47 hhcurveto
          -28 -23 -33 callgsubr
          -31 -65 rlineto
          0 37 -30 59 103 66 65 95 9 vhcurveto
          43 470 rlineto
          135 hlineto
          6 70 rlineto
          -135 hlineto
          4 50 rlineto
          60 4 34 30 45 hhcurveto
          45 40 -45 0 hvcurveto
          10 hlineto
          41 60 rlineto
          0 -55 55 -85 -107 -64 -65 -95 -8 vhcurveto
          -4 -50 rlineto
          -65 hlineto
          -6 -70 rlineto
          65 hlineto
          endchar
        </CharString>
        <CharString name="four">
          13 21 -21 170 70 460 -20 hstem
          340 100 vstem
          440 240 rmoveto
          460 -100 vlineto
          -330 -460 rlineto
          -70 330 -170 100 170 80 70 vlineto
          -215 15 callsubr
          16 24 23 46 -81 callsubr
          -8 -45 -25 vvcurveto
          -260 -220 vlineto
          endchar
        </CharString>
        <CharString name="g">
          17 callgsubr
          0 callsubr
          -75 callsubr
          hintmask 11011100
          26 callgsubr
          hintmask 11101100
          -89 callsubr
          endchar
        </CharString>
        <CharString name="gbreve">
          17 callgsubr
          80 -34 callsubr
          50 100 -33 -19 callsubr
          -57 100 hintmask 1110001001000000
          -75 callsubr
          hintmask 1101001001000000
          26 callgsubr
          hintmask 1110001001000000
          -89 callsubr
          hintmask 1101001001000000
          hintmask 0000100110000000
          -193 630 rmoveto
          hintmask 0000010110000000
          -94 callsubr
          hintmask 0000100110000000
          -43 callsubr
        </CharString>
        <CharString name="gcommaaccent">
          17 callgsubr
          90 20 175 21 hstemhm
          50 100 50 110 50 100 hintmask 1110001010000000
          -75 callsubr
          hintmask 1101001010000000
          26 callgsubr
          hintmask 1110001010000000
          -89 callsubr
          hintmask 1101001010000000
          hintmask 0000110100000000
          -150 635 rmoveto
          30 -25 25 -25 vhcurveto
          40 50 35 0 vhcurveto
          -30 31 rlineto
          0 -80 -46 -106 vvcurveto
          -39 25 -25 35 25 25 25 30 vhcurveto
          endchar
        </CharString>
        <CharString name="germandbls">
          93 -39 callgsubr
          420 70 150 70 hstemhm
          35 165 -100 100 110 90 -60 60 -60 100 45 100 hintmask 1011100101000000
          380 60 rmoveto
          -40 -92 callsubr
          70 120 75 75 115 vhcurveto
          150 -185 15 105 vvcurveto
          hintmask 1011010011000000
          50 40 10 60 vvcurveto
          80 -60 60 -115 -100 -65 -65 -95 vhcurveto
          -60 vlineto
          hintmask 1011101001000000
          -65 -70 hlineto
          hintmask 0111010101000000
          65 -420 100 550 hlineto
          60 30 30 45 35 30 -30 -40 vhcurveto
          hintmask 1011101001000000
          -50 -30 -20 -50 -150 175 -15 -115 vvcurveto
          -70 -40 -40 -65 vhcurveto
          endchar
        </CharString>
        <CharString name="grave">
          -352 550 150 hstem
          10 700 -91 callsubr
        </CharString>
        <CharString name="greater">
          -82 -62 callgsubr
          35 500 rmoveto
          -95 vlineto
          280 -155 -280 -155 rlineto
          -95 vlineto
          390 215 rlineto
          70 vlineto
          endchar
        </CharString>
        <CharString name="guillemotleft">
          -52 -62 callgsubr
          130 -7 callgsubr
          160 190 -65 60 -215 -250 215 -250 65 60 rlineto
          -85 190 rmoveto
          185 -215 65 60 -130 155 130 155 -65 60 rlineto
          endchar
        </CharString>
        <CharString name="guillemotright">
          -52 -62 callgsubr
          185 60 rmoveto
          65 -60 215 250 -215 250 -65 -60 160 -190 rlineto
          -260 215 rmoveto
          -65 -60 130 -155 -130 -155 65 -60 185 215 rlineto
          endchar
        </CharString>
        <CharString name="guilsinglleft">
          -197 71 -21 420 -20 hstem
          10 15 callsubr
          190 -210 23 callsubr
          -190 210 190 210 rlineto
          -120 hlineto
          endchar
        </CharString>
        <CharString name="guilsinglright">
          -187 71 -21 420 -20 hstem
          130 470 rmoveto
          -120 hlineto
          190 -210 -190 -210 23 callsubr
          190 210 rlineto
          endchar
        </CharString>
        <CharString name="h">
          18 21 21 callgsubr
          190 -20 hstem
          -40 callsubr
          vstem
          105 -24 callgsubr
          -30 -30 rlineto
          -670 100 375 vlineto
          -29 callsubr
          55 40 -40 -55 vhcurveto
          -340 100 340 -22 callsubr
          240 vlineto
          endchar
        </CharString>
        <CharString name="hbar">
          -80 callsubr
        </CharString>
        <CharString name="hungarumlaut">
          -232 550 150 hstem
          55 700 -88 callsubr
        </CharString>
        <CharString name="hyphen">
          -16 callsubr
        </CharString>
        <CharString name="i">
          -63 callgsubr
        </CharString>
        <CharString name="iacute">
          -270 -54 callgsubr
          70 -39 callsubr
          75 100 hintmask 11010000
          75 -79 callgsubr
          hintmask 00100000
          -43 200 rmoveto
          -25 callgsubr
          65 hlineto
          90 -44 callgsubr
        </CharString>
        <CharString name="icircumflex">
          -267 -54 callgsubr
          101 -61 callgsubr
          hstemhm
          80 100 hintmask 11001000
          80 -79 callgsubr
          hintmask 00110000
          -85 190 -99 callsubr
        </CharString>
        <CharString name="idieresis">
          -267 -54 callgsubr
          85 14 callsubr
          -15 -10 callsubr
          80 -79 callgsubr
          hintmask 00110100
          -85 120 -106 callgsubr
        </CharString>
        <CharString name="igrave">
          -269 -54 callgsubr
          70 -39 callsubr
          83 100 hintmask 11010000
          83 -79 callgsubr
          hintmask 00100000
          -168 200 -91 callsubr
        </CharString>
        <CharString name="ij">
          -22 -200 70 151 -21 430 70 80 120 hstem
          75 100 155 100 vstem
          255 -130 rmoveto
          -30 -92 callsubr
          60 100 65 65 95 vhcurveto
          540 -355 -500 100 430 155 -470 vlineto
          -60 -30 -30 -45 vhcurveto
          185 770 rmoveto
          -102 callgsubr
          -255 hmoveto
          -49 callsubr
        </CharString>
        <CharString name="imacron">
          -277 -54 callgsubr
          100 70 hstemhm
          75 100 hintmask 11010000
          75 -79 callgsubr
          hintmask 00100000
          -185 150 -70 callgsubr
        </CharString>
        <CharString name="iogonek">
          -282 -47 callsubr
          -54 callgsubr
          100 120 hstemhm
          55 70 -50 100 hintmask 00111010
          75 -79 callgsubr
          10 -55 callgsubr
          hintmask 10000100
          -25 -740 -46 callgsubr
          hintmask 01000100
          -97 callsubr
          hintmask 10000100
          -48 callgsubr
        </CharString>
        <CharString name="itilde">
          -287 -54 callgsubr
          100 -35 callsubr
          70 100 hintmask 11000100
          70 -79 callgsubr
          hintmask 00010000
          32 190 -97 callgsubr
        </CharString>
        <CharString name="j">
          -82 callgsubr
        </CharString>
        <CharString name="jcircumflex">
          -259 -200 20 callgsubr
          91 -61 callgsubr
          hstemhm
          95 100 hintmask 11001000
          20 -130 rmoveto
          -30 -92 callsubr
          60 100 65 65 95 vhcurveto
          540 -100 -540 vlineto
          -60 -30 -30 -45 vhcurveto
          hintmask 00110000
          83 810 -99 callsubr
        </CharString>
        <CharString name="k">
          -47 -54 callgsubr
          220 -20 hstem
          75 100 vstem
          105 -24 callgsubr
          -30 -30 rlineto
          -670 -85 callsubr
          430 vlineto
          endchar
        </CharString>
        <CharString name="kcedilla">
          -47 -38 callgsubr
          1 -19 callgsubr
          220 -20 hstemhm
          75 100 5 23 callgsubr
          hintmask 0001111000000000
          105 -24 callgsubr
          -30 -30 rlineto
          -670 -85 callsubr
          430 vlineto
          hintmask 1010000100000000
          65 -680 -12 callsubr
          hintmask 1100000010000000
          -53 callsubr
          hintmask 1100000100000000
          -92 callgsubr
        </CharString>
        <CharString name="kcommaaccent">
          -47 -36 callgsubr
          500 -20 220 -20 hstemhm
          75 100 22 110 hintmask 00111100
          105 -24 callgsubr
          -30 -30 rlineto
          -670 -85 callsubr
          430 vlineto
          hintmask 11000010
          22 -765 rmoveto
          -30 25 -25 25 vhcurveto
          -40 -50 -35 -38 callsubr
          -31 rlineto
          0 80 46 106 vvcurveto
          39 -25 25 -35 -25 -25 -25 -30 vhcurveto
          endchar
        </CharString>
        <CharString name="kgreenlandic">
          -47 -62 callgsubr
          75 100 vstem
          105 500 rmoveto
          -30 -30 rlineto
          -470 -85 callsubr
          230 vlineto
          endchar
        </CharString>
        <CharString name="l">
          -277 -83 callsubr
          hstem
          75 100 vstem
          75 hmoveto
          -36 callsubr
          endchar
        </CharString>
        <CharString name="lacute">
          -275 -8 callgsubr
          75 100 hintmask 11010000
          75 hmoveto
          -36 callsubr
          hintmask 00100000
          67 230 rmoveto
          -25 callgsubr
          65 hlineto
          90 -44 callgsubr
        </CharString>
        <CharString name="lcaron">
          -162 21 -21 505 -42 callgsubr
          hstemhm
          75 100 70 110 hintmask 01101000
          245 645 rmoveto
          -30 25 -25 25 vhcurveto
          -40 -50 -35 -38 callsubr
          -31 rlineto
          0 80 46 106 vvcurveto
          39 -25 25 -35 -25 -25 -25 -30 vhcurveto
          hintmask 10110000
          -170 -645 rmoveto
          -36 callsubr
          endchar
        </CharString>
        <CharString name="lcommaaccent">
          -277 -245 -42 callgsubr
          91 -71 callgsubr
          hstemhm
          70 110 -105 100 hintmask 00110100
          75 hmoveto
          -36 callsubr
          hintmask 11001000
          -5 -775 rmoveto
          -30 25 -25 25 vhcurveto
          -40 -50 -35 -38 callsubr
          -31 rlineto
          0 80 46 106 vvcurveto
          39 -25 25 -35 -25 -25 -25 -30 vhcurveto
          endchar
        </CharString>
        <CharString name="ldot">
          -167 21 -21 290 120 290 -20 hstemhm
          75 100 55 120 hintmask 10110000
          75 hmoveto
          -36 callsubr
          hintmask 01001000
          155 -320 rmoveto
          -69 callsubr
        </CharString>
        <CharString name="less">
          -57 -62 callgsubr
          40 285 rmoveto
          -70 vlineto
          390 -215 rlineto
          95 vlineto
          -280 155 280 155 rlineto
          95 vlineto
          endchar
        </CharString>
        <CharString name="logicalnot">
          -67 240 170 -80 80 hstemhm
          340 90 hintmask 10100000
          340 240 rmoveto
          90 170 -400 hlineto
          hintmask 01100000
          -80 310 vlineto
          endchar
        </CharString>
        <CharString name="lslash">
          -237 -83 callsubr
          hstemhm
          25 160 -100 100 -100 180 hintmask 11100000
          85 hmoveto
          100 349 hlineto
          hintmask 11001000
          80 71 rlineto
          110 vlineto
          hintmask 11100000
          -80 -71 rlineto
          241 -70 vlineto
          hintmask 11010000
          -30 -30 rlineto
          -291 vlineto
          hintmask 11100000
          -60 -49 rlineto
          -110 vlineto
          hintmask 11010000
          60 49 rlineto
          endchar
        </CharString>
        <CharString name="m">
          278 -15 callgsubr
          hstemhm
          75 100 24 callsubr
          24 callsubr
          cntrmask 00011100
          hintmask 11011100
          425 25 callgsubr
          0 -35 70 -95 -85 -50 -70 0 vhcurveto
          -5 hlineto
          hintmask 10111100
          -63 callsubr
          375 hlineto
          hintmask 11011100
          0 45 60 50 45 40 -40 -55 vhcurveto
          -340 100 385 vlineto
          0 45 50 50 45 40 -40 -55 vhcurveto
          -52 callgsubr
          -90 -90 -60 -70 0 vhcurveto
          endchar
        </CharString>
        <CharString name="macron">
          -217 590 70 hstem
          20 660 -70 callgsubr
        </CharString>
        <CharString name="mu">
          23 -12 callgsubr
          75 -44 -21 500 -15 callsubr
          hintmask 11011100
          75 -200 rmoveto
          70 hlineto
          30 30 rlineto
          190 vlineto
          0 35 -30 50 75 55 60 0 vhcurveto
          5 hlineto
          hintmask 10111100
          10 -50 rlineto
          70 15 callgsubr
          -385 hlineto
          hintmask 11011100
          0 -45 -50 -60 -55 -40 40 55 vhcurveto
          340 -100 vlineto
          endchar
        </CharString>
        <CharString name="multiply">
          -90 178 -21 346 -20 hstem
          335 157 rmoveto
          57 56 -117 117 117 117 -57 56 -116 -116 -117 116 -57 -56 117 -117 -117 -117 57 -56 117 116 rlineto
          endchar
        </CharString>
        <CharString name="n">
          1 callgsubr
          hstemhm
          75 100 200 100 hintmask 11011000
          -90 callgsubr
          hintmask 10111000
          -63 callsubr
          375 hlineto
          hintmask 11011000
          -29 callsubr
          vhcurveto
          endchar
        </CharString>
        <CharString name="nacute">
          1 callgsubr
          70 -39 callsubr
          -40 callsubr
          hintmask 11001100
          -90 callgsubr
          hintmask 10101100
          -63 callsubr
          375 hlineto
          hintmask 11001100
          -29 callsubr
          vhcurveto
          hintmask 00010000
          265 vmoveto
          -25 callgsubr
          65 hlineto
          90 -44 callgsubr
        </CharString>
        <CharString name="ncaron">
          1 callgsubr
          101 -21 130 -15 callsubr
          hintmask 11000110
          -90 callgsubr
          hintmask 10100110
          -63 callsubr
          375 hlineto
          hintmask 11000110
          -29 callsubr
          vhcurveto
          hintmask 00011000
          27 125 -102 callsubr
        </CharString>
        <CharString name="ncommaaccent">
          18 -36 callgsubr
          435 75 -10 -20 hstemhm
          75 100 47 110 43 100 hintmask 00110101
          -90 callgsubr
          hintmask 00101101
          -63 callsubr
          375 hlineto
          hintmask 00110101
          -29 callsubr
          vhcurveto
          hintmask 11000010
          -58 -500 rmoveto
          -30 25 -25 25 vhcurveto
          -40 -50 -35 -38 callsubr
          -31 rlineto
          0 80 46 106 vvcurveto
          39 -25 25 -35 -25 -25 -25 -30 vhcurveto
          endchar
        </CharString>
        <CharString name="nine">
          8 -10 7 callsubr
          320 70 hstem
          40 -11 callgsubr
          480 470 rmoveto
          160 -80 80 -146 -134 -80 -80 -160 -140 80 -80 130 80 50 40 0 -170 -60 -60 -85 -75 -50 45 0 vhcurveto
          -78 callsubr
          65 -55 115 145 90 90 210 vhcurveto
          -210 30 rmoveto
          -80 -50 50 100 120 50 50 65 75 50 -50 -120 hvcurveto
          -110 vlineto
          0 -40 -40 -70 vhcurveto
          endchar
        </CharString>
        <CharString name="ntilde">
          1 callgsubr
          90 -35 callsubr
          -40 callsubr
          hintmask 11000011
          -90 callgsubr
          hintmask 10100011
          -63 callsubr
          375 hlineto
          hintmask 11000011
          -29 callsubr
          vhcurveto
          hintmask 00001000
          84 245 -64 callgsubr
        </CharString>
        <CharString name="numbersign">
          133 0 250 -70 70 200 70 -70 250 hstemhm
          hintmask 10010000
          340 -24 callgsubr
          -100 hlineto
          hintmask 10100000
          -41 -180 rlineto
          -119 -70 103 hlineto
          -46 -200 rlineto
          -117 hlineto
          hintmask 01100000
          -70 101 vlineto
          -1 callsubr
          140 hlineto
          -1 callsubr
          119 70 -103 hlineto
          46 200 rlineto
          117 70 -101 hlineto
          hintmask 10010000
          41 -6 callgsubr
          -100 hlineto
          hintmask 10100000
          -41 -180 rlineto
          -140 hlineto
          hintmask 10010000
          -16 -70 rmoveto
          140 hlineto
          -46 -200 rlineto
          -140 hlineto
          endchar
        </CharString>
        <CharString name="o">
          3 4 callsubr
          50 -25 callsubr
          vstem
          -105 callgsubr
          endchar
        </CharString>
        <CharString name="oacute">
          3 -65 callgsubr
          40 150 -35 callgsubr
          hintmask 11011000
          -105 callgsubr
          hintmask 00100000
          -108 450 rmoveto
          -25 callgsubr
          65 hlineto
          90 -44 callgsubr
        </CharString>
        <CharString name="ocircumflex">
          3 -65 callgsubr
          71 -61 callgsubr
          -35 callgsubr
          hintmask 11001100
          -105 callgsubr
          hintmask 00110000
          -150 440 -99 callsubr
        </CharString>
        <CharString name="odieresis">
          3 -65 callgsubr
          55 14 callsubr
          50 100 -30 -40 callgsubr
          -25 100 hintmask 11010010
          -105 callgsubr
          hintmask 00101100
          -150 370 -106 callgsubr
        </CharString>
        <CharString name="oe">
          293 -77 callsubr
          hstem
          50 100 220 105 -28 callsubr
          cntrmask 11100000
          420 430 rmoveto
          45 -35 -50 35 -75 hhcurveto
          -125 -85 -85 -175 -175 85 -85 125 75 50 26 54 36 hvcurveto
          -54 38 61 -26 65 hhcurveto
          22 callgsubr
          hvcurveto
          -96 callgsubr
          -60 -70 -50 50 105 vhcurveto
          280 27 callsubr
          -115 -69 -51 -35 -45 -35 vhcurveto
          -160 -370 rmoveto
          -60 -74 callsubr
          60 58 49 -48 -132 3 hvcurveto
          -10 vlineto
          -11 vlineto
          -132 -3 -49 -47 -58 hhcurveto
          315 380 rmoveto
          -3 callsubr
          endchar
        </CharString>
        <CharString name="ogonek">
          -337 -47 callsubr
          hstemhm
          10 70 hintmask 10100000
          115 -100 -46 callgsubr
          hintmask 01100000
          -97 callsubr
          hintmask 10100000
          -48 callgsubr
        </CharString>
        <CharString name="ograve">
          3 -65 callgsubr
          40 150 -35 callgsubr
          hintmask 11011000
          -105 callgsubr
          hintmask 00100000
          -233 450 -91 callsubr
        </CharString>
        <CharString name="ohungarumlaut">
          3 -65 callgsubr
          40 150 -35 callgsubr
          hintmask 11011000
          -105 callgsubr
          hintmask 00100000
          -178 450 -88 callsubr
        </CharString>
        <CharString name="omacron">
          3 -65 callgsubr
          80 70 -35 callgsubr
          hintmask 11011000
          -105 callgsubr
          hintmask 00100000
          -250 410 -70 callgsubr
        </CharString>
        <CharString name="one">
          -137 0 20 callgsubr
          hstem
          160 100 vstem
          160 70 rmoveto
          -110 -70 320 70 -110 630 -90 hlineto
          -150 -120 40 -55 100 65 rlineto
          endchar
        </CharString>
        <CharString name="onehalf">
          223 0 60 230 60 10 1 callsubr
          240 90 80 -53 callgsubr
          590 -375 -64 callsubr
        </CharString>
        <CharString name="onequarter">
          233 21 -21 70 60 230 1 callsubr
          370 -53 callgsubr
          550 -480 -56 callsubr
          endchar
        </CharString>
        <CharString name="onesuperior">
          -202 360 1 callsubr
          vstem
          125 420 rmoveto
          -75 -60 240 60 -75 280 -85 hlineto
          -95 -80 30 -45 60 35 rlineto
          endchar
        </CharString>
        <CharString name="ordfeminine">
          -167 350 60 95 60 85 60 hstem
          35 90 110 90 vstem
          235 565 rmoveto
          -45 hlineto
          -110 -45 -45 -65 -60 45 -45 76 59 30 50 6 callsubr
          6 -40 rlineto
          69 230 hlineto
          70 -50 50 -90 -80 -46 -45 0 vhcurveto
          26 -45 rlineto
          10 hlineto
          0 25 30 50 40 25 -25 -35 vhcurveto
          -150 vmoveto
          0 -25 -30 -35 -30 -20 20 25 30 20 20 45 vhcurveto
          45 hlineto
          endchar
        </CharString>
        <CharString name="ordmasculine">
          -137 350 60 240 60 hstem
          35 9 callsubr
          vstem
          195 650 -76 callsubr
          -93 callgsubr
          endchar
        </CharString>
        <CharString name="oslash">
          3 -39 callgsubr
          440 70 -10 -20 -35 callgsubr
          hintmask 10011100
          480 -7 callgsubr
          82 -19 62 -33 43 vhcurveto
          42 63 rlineto
          -80 hlineto
          -12 -18 rlineto
          hintmask 01101100
          19 -32 -38 9 -43 hhcurveto
          -130 -85 -85 -175 -82 18 -62 33 -43 hvcurveto
          -41 -63 rlineto
          80 hlineto
          12 18 rlineto
          hintmask 10101100
          -18 32 38 -10 43 hhcurveto
          130 85 85 175 hvcurveto
          -100 hmoveto
          -140 -50 -50 -65 -26 -24 8 18 -19 vhcurveto
          173 261 rlineto
          7 -26 4 -32 -39 vvcurveto
          -230 hmoveto
          140 50 50 65 26 23 -8 -18 19 vhcurveto
          -172 -261 rlineto
          -7 26 -4 32 39 vvcurveto
          endchar
        </CharString>
        <CharString name="otilde">
          3 -65 callgsubr
          50 70 -25 25 -25 70 -35 callgsubr
          hintmask 11000110
          -105 callgsubr
          hintmask 00010000
          -33 420 -97 callgsubr
        </CharString>
        <CharString name="p">
          -86 callsubr
        </CharString>
        <CharString name="paragraph">
          38 -179 -21 830 70 hstem
          225 90 70 90 vstem
          225 -200 rmoveto
          90 830 70 -830 90 830 80 70 -330 hlineto
          -110 -90 -90 -115 -115 90 -90 110 hvcurveto
          endchar
        </CharString>
        <CharString name="parenleft">
          -242 -154 -21 910 -20 hstem
          55 100 vstem
          55 280 rmoveto
          -170 65 -170 125 -115 vhcurveto
          40 40 rlineto
          -80 115 -50 130 170 vvcurveto
          170 50 130 80 115 vhcurveto
          -40 40 rlineto
          -125 -115 -65 -170 -170 vvcurveto
          endchar
        </CharString>
        <CharString name="parenright">
          -242 -154 -21 910 -20 hstem
          130 100 vstem
          230 280 rmoveto
          170 -65 170 -125 115 vhcurveto
          -40 -40 rlineto
          80 -115 50 -130 -170 vvcurveto
          -170 -50 -130 -80 -115 vhcurveto
          40 -40 rlineto
          125 115 65 170 170 vvcurveto
          endchar
        </CharString>
        <CharString name="percent">
          273 -4 callsubr
          30 9 callsubr
          100 9 callsubr
          hintmask 0110011111000000
          110 -57 callsubr
          hintmask 1001101111000000
          -390 -50 -76 callsubr
          -93 callgsubr
          hintmask 1010101111000000
          420 -420 -76 callsubr
          -93 callgsubr
          endchar
        </CharString>
        <CharString name="period">
          -327 -10 3 callsubr
          vstem
          40 50 rmoveto
          -69 callsubr
        </CharString>
        <CharString name="periodcentered">
          -237 290 120 hstem
          85 120 vstem
          85 350 rmoveto
          -69 callsubr
        </CharString>
        <CharString name="perthousand">
          604 -4 callsubr
          20 9 callsubr
          100 9 callsubr
          31 9 callsubr
          hintmask 0110011111110000
          100 -57 callsubr
          30 -410 rmoveto
          40 30 -30 -90 hvcurveto
          hintmask 1010101111110000
          -74 callgsubr
          vhcurveto
          -93 callgsubr
          351 -60 -76 callsubr
          -93 callgsubr
          -771 300 rmoveto
          40 30 -30 -90 hvcurveto
          hintmask 1001101111110000
          -74 callgsubr
          vhcurveto
          -93 callgsubr
          endchar
        </CharString>
        <CharString name="plus">
          -57 146 -21 165 80 165 -20 hstem
          195 80 vstem
          195 125 rmoveto
          80 165 -4 callgsubr
          hlineto
          endchar
        </CharString>
        <CharString name="plusminus">
          -37 95 80 135 80 165 -20 hstem
          205 80 vstem
          450 95 rmoveto
          80 -165 135 -4 callgsubr
          -135 -165 -80 vlineto
          endchar
        </CharString>
        <CharString name="q">
          13 callsubr
          50 100 210 100 hintmask 11101100
          -75 callsubr
          30 -575 rmoveto
          70 hlineto
          hintmask 11011100
          700 -70 vlineto
          -10 -60 rlineto
          -5 hlineto
          hintmask 11101100
          0 -45 70 -100 -95 -85 -85 -175 -175 85 -85 115 60 50 30 0 vhcurveto
          -190 vlineto
          endchar
        </CharString>
        <CharString name="question">
          -67 -10 120 530 70 hstemhm
          121 120 -105 90 94 100 hintmask 11101000
          121 50 -93 callsubr
          hintmask 11011000
          105 170 rmoveto
          130 194 0 170 vvcurveto
          -37 callgsubr
          -140 -184 0 -170 vvcurveto
          -40 90 vlineto
          endchar
        </CharString>
        <CharString name="questiondown">
          -67 -210 70 530 120 hstemhm
          40 100 79 120 -105 90 hintmask 11110000
          339 450 rmoveto
          -102 callgsubr
          hintmask 11101000
          -105 -170 rmoveto
          -130 -194 0 -170 vvcurveto
          -110 80 -80 145 130 65 55 0 vhcurveto
          -96 callgsubr
          -90 -85 -50 50 60 vhcurveto
          140 184 0 170 vvcurveto
          40 -90 vlineto
          endchar
        </CharString>
        <CharString name="quotedbl">
          -187 -16 callgsubr
          175 -240 rmoveto
          65 hlineto
          20 240 rlineto
          -105 hlineto
          endchar
        </CharString>
        <CharString name="quotedblbase">
          -167 -109 -21 120 3 callsubr
          -77 callgsubr
          160 hmoveto
          -73 callsubr
        </CharString>
        <CharString name="quotedblleft">
          -167 470 120 120 -20 hstem
          -1 callgsubr
          -1 callgsubr
          vstem
          320 530 rmoveto
          -72 callgsubr
          -160 hmoveto
          -72 callgsubr
          endchar
        </CharString>
        <CharString name="quotedblright">
          -167 491 -21 120 3 callsubr
          -51 callsubr
          160 hmoveto
          -73 callsubr
        </CharString>
        <CharString name="quoteleft">
          -327 491 -21 240 -20 hstem
          -1 callgsubr
          vstem
          160 530 rmoveto
          -72 callgsubr
          endchar
        </CharString>
        <CharString name="quoteright">
          -327 491 -21 240 -20 hstem
          -51 callsubr
          endchar
        </CharString>
        <CharString name="quotesinglbase">
          2 callsubr
          120 -20 hstem
          -77 callgsubr
          endchar
        </CharString>
        <CharString name="quotesingle">
          -342 -16 callgsubr
          endchar
        </CharString>
        <CharString name="r">
          -162 -18 callgsubr
          80 -10 -20 hstemhm
          75 100 hintmask 11010000
          -44 callsubr
          hintmask 10110000
          15 80 rlineto
          hintmask 11010000
          -41 callgsubr
          hintmask 10110000
          -63 callsubr
          370 hlineto
          hintmask 11010000
          0 45 60 55 vhcurveto
          endchar
        </CharString>
        <CharString name="racute">
          -162 -18 callgsubr
          80 -10 -20 70 -39 callsubr
          75 100 hintmask 11001000
          -44 callsubr
          hintmask 10101000
          15 80 rlineto
          hintmask 11001000
          -41 callgsubr
          hintmask 10101000
          -63 callsubr
          370 hlineto
          hintmask 11001000
          0 45 60 55 vhcurveto
          hintmask 00010000
          -58 270 rmoveto
          -25 callgsubr
          65 hlineto
          90 -44 callgsubr
        </CharString>
        <CharString name="rcaron">
          -147 -18 callgsubr
          80 -10 -20 101 -61 callgsubr
          hstemhm
          75 100 hintmask 11000100
          -44 callsubr
          hintmask 10100100
          15 80 rlineto
          hintmask 11000100
          -41 callgsubr
          hintmask 10100100
          -63 callsubr
          370 hlineto
          hintmask 11000100
          0 45 60 55 vhcurveto
          hintmask 00011000
          -10 130 -102 callsubr
        </CharString>
        <CharString name="rcommaaccent">
          -162 -245 -42 callgsubr
          91 -21 430 80 -10 -20 hstemhm
          70 110 -105 100 hintmask 00110010
          -44 callsubr
          hintmask 00101010
          15 80 rlineto
          hintmask 00110010
          -41 callgsubr
          hintmask 00101010
          -63 callsubr
          370 hlineto
          hintmask 00110010
          0 45 60 55 vhcurveto
          hintmask 11000100
          -205 -535 rmoveto
          -30 25 -25 25 vhcurveto
          -40 -50 -35 -38 callsubr
          -31 rlineto
          0 80 46 106 vvcurveto
          39 -25 25 -35 -25 -25 -25 -30 vhcurveto
          endchar
        </CharString>
        <CharString name="registered">
          333 -30 70 95 215 -65 65 150 65 95 70 hstemhm
          40 90 150 90 146 90 124 90 hintmask 1101111110000000
          -80 callgsubr
          -150 -95 rmoveto
          -430 90 vlineto
          hintmask 1011111110000000
          150 61 vlineto
          hintmask 1101111110000000
          90 -7 callsubr
          95 hlineto
          -100 165 rlineto
          50 15 40 45 65 vvcurveto
          85 -55 55 -125 vhcurveto
          -65 vmoveto
          65 25 -25 -50 -50 -25 -25 -65 hvcurveto
          -56 150 hlineto
          endchar
        </CharString>
        <CharString name="ring">
          -307 540 50 90 50 hstem
          10 60 80 60 vstem
          110 680 rmoveto
          -94 callgsubr
        </CharString>
        <CharString name="s">
          -67 4 callsubr
          45 100 24 callsubr
          vstem
          -104 callgsubr
          endchar
        </CharString>
        <CharString name="sacute">
          -67 -65 callgsubr
          40 -39 callsubr
          45 100 24 callsubr
          hintmask 11011000
          -104 callgsubr
          hintmask 00100000
          7 710 rmoveto
          -25 callgsubr
          65 hlineto
          90 -44 callgsubr
        </CharString>
        <CharString name="scaron">
          -67 -65 callgsubr
          71 -61 callgsubr
          hstemhm
          45 100 24 callsubr
          hintmask 11001100
          -104 callgsubr
          hintmask 00110000
          45 570 -102 callsubr
        </CharString>
        <CharString name="scedilla">
          -67 -38 callgsubr
          -30 -54 callsubr
          hstemhm
          45 100 42 23 callgsubr
          -12 100 hintmask 0001110010000000
          -104 callgsubr
          hintmask 1010001000000000
          27 30 -12 callsubr
          hintmask 1100000100000000
          -53 callsubr
          hintmask 1100001000000000
          -92 callgsubr
        </CharString>
        <CharString name="scommaaccent">
          -67 -250 -42 callgsubr
          65 -54 callsubr
          hstemhm
          45 100 40 110 30 100 hintmask 00111010
          -104 callgsubr
          hintmask 11000100
          -35 -100 rmoveto
          -30 25 -25 25 vhcurveto
          -40 -50 -35 -38 callsubr
          -31 rlineto
          0 80 46 106 vvcurveto
          39 -25 25 -35 -25 -25 -25 -30 vhcurveto
          endchar
        </CharString>
        <CharString name="section">
          -210 70 780 70 hstemhm
          55 9 callgsubr
          -85 85 hintmask 11110000
          240 -210 rmoveto
          145 70 70 110 58 -26 37 -37 27 hvcurveto
          48 31 25 51 66 210 -310 -45 140 vvcurveto
          55 40 40 80 70 50 -45 0 vhcurveto
          27 callgsubr
          -140 -70 -70 -105 -59 27 -38 38 -27 vhcurveto
          -49 -30 -26 -52 -64 -210 310 45 -140 vvcurveto
          -60 -40 -40 -85 -80 -50 45 0 vhcurveto
          -78 callsubr
          65 -55 120 vhcurveto
          -30 575 rmoveto
          hintmask 11101000
          80 -25 80 -35 -75 vvcurveto
          -40 -25 -35 -40 -15 vhcurveto
          -80 25 -80 35 75 vvcurveto
          40 25 35 40 15 vhcurveto
          endchar
        </CharString>
        <CharString name="semicolon">
          2 callsubr
          400 3 callsubr
          vstem
          40 450 -93 callsubr
          -400 vmoveto
          -73 callsubr
        </CharString>
        <CharString name="seven">
          -87 -11 callsubr
          hstem
          140 100 vstem
          140 hmoveto
          100 90 hlineto
          230 100 200 90 110 vhcurveto
          70 -430 -70 320 vlineto
          -90 -110 -90 -200 -230 vvcurveto
          endchar
        </CharString>
        <CharString name="six">
          8 -10 70 320 7 callsubr
          hstem
          55 -11 callgsubr
          55 230 rmoveto
          -160 80 -80 146 134 80 80 160 22 callsubr
          -130 -80 -50 -40 0 170 60 60 85 75 50 -45 0 vhcurveto
          10 hlineto
          35 60 rlineto
          0 -65 55 -115 -145 -90 -90 -210 vhcurveto
          210 -30 rmoveto
          80 50 -50 -100 -120 -50 -50 -65 -75 -50 50 120 hvcurveto
          110 vlineto
          0 40 40 70 vhcurveto
          endchar
        </CharString>
        <CharString name="slash">
          -117 -83 callsubr
          hstem
          0 vmoveto
          100 hlineto
          310 25 callsubr
          -100 hlineto
          endchar
        </CharString>
        <CharString name="space">
          -237 endchar
        </CharString>
        <CharString name="sterling">
          -52 0 -50 callsubr
          240 70 hstemhm
          35 165 -100 100 hintmask 11101000
          275 710 rmoveto
          -100 -75 -75 -95 hvcurveto
          -140 vlineto
          hintmask 11110000
          -65 -70 hlineto
          hintmask 11101000
          65 -80 hlineto
          -160 -75 -20 0 vhcurveto
          -70 440 70 -335 vlineto
          0 70 30 150 vvcurveto
          80 135 70 -135 140 vlineto
          60 40 40 45 70 40 -45 0 vhcurveto
          10 hlineto
          35 60 rlineto
          0 -55 55 -110 vhcurveto
          endchar
        </CharString>
        <CharString name="t">
          -127 -10 70 370 70 120 -20 hstem
          95 100 vstem
          195 430 -85 callgsubr
          endchar
        </CharString>
        <CharString name="tcaron">
          -47 -10 70 365 -21 26 70 10 -20 -24 callsubr
          hstemhm
          95 100 165 110 hintmask 01011010
          360 565 rmoveto
          -30 25 -25 25 vhcurveto
          -40 -50 -35 -38 callsubr
          -31 rlineto
          0 80 46 106 vvcurveto
          39 -25 25 -35 -25 -25 -25 -30 vhcurveto
          hintmask 10101100
          -165 -135 -85 callgsubr
          endchar
        </CharString>
        <CharString name="tcommaaccent">
          -127 -255 -42 callgsubr
          70 70 370 70 120 -20 hstemhm
          95 100 -5 110 hintmask 00111100
          195 430 -85 callgsubr
          hintmask 11000010
          -5 -265 rmoveto
          -30 25 -25 25 vhcurveto
          -40 -50 -35 -38 callsubr
          -31 rlineto
          0 80 46 106 vvcurveto
          39 -25 25 -35 -25 -25 -25 -30 vhcurveto
          endchar
        </CharString>
        <CharString name="thorn">
          13 13 callgsubr
          80 100 210 100 vstem
          390 -7 callgsubr
          -140 -50 -50 -65 -55 -40 20 0 vhcurveto
          340 vlineto
          0 40 20 55 65 50 -50 -140 vhcurveto
          -210 450 rmoveto
          -70 hlineto
          -30 -30 rlineto
          -870 100 220 vlineto
          0 50 -30 60 115 85 85 175 175 -85 85 -115 -60 -50 -30 0 vhcurveto
          endchar
        </CharString>
        <CharString name="three">
          -27 -10 70 280 -28 callgsubr
          70 hstem
          360 100 vstem
          30 630 rmoveto
          290 hlineto
          -225 -220 rlineto
          -70 105 vlineto
          110 50 -50 -90 -90 -50 -50 -110 -90 -70 callsubr
          130 170 80 80 130 130 -80 80 -165 vhcurveto
          225 220 rlineto
          70 -410 vlineto
          endchar
        </CharString>
        <CharString name="threequarters">
          223 21 -21 70 60 220 60 100 60 70 60 hstem
          211 90 274 90 vstem
          95 -57 callsubr
          100 -570 -56 callsubr
          -184 330 rmoveto
          65 -46 45 -80 vhcurveto
          12 callgsubr
          rlineto
          65 -234 -60 144 vlineto
          -120 -80 rlineto
          -50 66 vlineto
          50 20 -20 -30 -30 -20 -20 -45 -50 -25 30 -72 callsubr
          -26 -45 rlineto
          0 46 -45 80 90 50 50 60 vhcurveto
          endchar
        </CharString>
        <CharString name="threesuperior">
          -206 350 60 100 60 70 60 hstem
          196 90 vstem
          286 460 rmoveto
          65 -46 45 -80 vhcurveto
          12 callgsubr
          rlineto
          65 -234 -60 144 vlineto
          -120 -80 rlineto
          -50 66 vlineto
          50 20 -20 -30 -30 -20 -20 -45 -50 -25 30 -72 callsubr
          -26 -45 rlineto
          0 46 -45 80 90 50 50 60 vhcurveto
          endchar
        </CharString>
        <CharString name="tilde">
          -232 580 -35 callsubr
          hintmask 01000000
          236 690 rmoveto
          1 -17 -40 -30 hhcurveto
          hintmask 00100000
          -30 -10 45 -50 hhcurveto
          -50 -25 -40 -45 -15 hvcurveto
          40 -25 rlineto
          9 hlineto
          -1 17 40 30 hhcurveto
          hintmask 10000000
          30 10 -45 50 hhcurveto
          50 25 40 45 15 hvcurveto
          -40 25 rlineto
          endchar
        </CharString>
        <CharString name="trademark">
          323 341 -21 315 65 hstem
          130 90 160 90 250 90 vstem
          340 -24 callgsubr
          -330 -65 120 -315 90 315 120 hlineto
          253 -170 rmoveto
          0 -5 20 -8 15 vhcurveto
          -105 200 rlineto
          -95 -380 90 180 hlineto
          25 -3 30 0 vhcurveto
          5 hlineto
          0 10 -31 13 -24 vhcurveto
          60 -115 rlineto
          80 hlineto
          60 115 rlineto
          13 24 10 31 0 vvcurveto
          5 hlineto
          0 -3 -30 -25 vvcurveto
          -180 90 380 -95 vlineto
          -105 -200 rlineto
          -8 -15 -5 -20 0 vvcurveto
          endchar
        </CharString>
        <CharString name="two">
          -27 0 70 570 70 hstem
          30 8 callgsubr
          vstem
          455 520 rmoveto
          -37 callgsubr
          -170 -325 -90 -200 vvcurveto
          -70 425 70 -325 vlineto
          140 325 110 200 vvcurveto
          endchar
        </CharString>
        <CharString name="twosuperior">
          -197 360 60 230 60 hstem
          35 90 80 90 vstem
          295 595 -64 callsubr
        </CharString>
        <CharString name="u">
          -59 callgsubr
          hstemhm
          75 100 200 100 hintmask 10111000
          -98 callsubr
          hintmask 01111000
          -75 callgsubr
          hintmask 10111000
          0 -45 -60 -60 vhcurveto
          endchar
        </CharString>
        <CharString name="uacute">
          -59 callgsubr
          60 150 -96 callsubr
          12 625 rmoveto
          -25 callgsubr
          65 hlineto
          90 -44 callgsubr
        </CharString>
        <CharString name="ucircumflex">
          -59 callgsubr
          101 -21 130 -15 callsubr
          hintmask 10100110
          -98 callsubr
          hintmask 01100110
          -75 callgsubr
          hintmask 10100110
          0 -45 -60 -60 vhcurveto
          hintmask 00011000
          -30 625 -99 callsubr
        </CharString>
        <CharString name="udieresis">
          -59 callgsubr
          85 14 callsubr
          75 100 -45 -40 callgsubr
          -40 100 hintmask 10101001
          -98 callsubr
          hintmask 01101001
          -75 callgsubr
          hintmask 10101001
          0 -45 -60 -60 vhcurveto
          hintmask 00010110
          -30 555 -106 callgsubr
        </CharString>
        <CharString name="ugrave">
          -59 callgsubr
          60 150 -96 callsubr
          -103 625 -91 callsubr
        </CharString>
        <CharString name="uhungarumlaut">
          -59 callgsubr
          60 150 -96 callsubr
          -48 625 -88 callsubr
        </CharString>
        <CharString name="umacron">
          -59 callgsubr
          100 70 -96 callsubr
          -130 585 -70 callgsubr
        </CharString>
        <CharString name="underscore">
          -147 -130 80 hstem
          380 -130 rmoveto
          80 -380 -80 vlineto
          endchar
        </CharString>
        <CharString name="uni00AD">
          -16 callsubr
        </CharString>
        <CharString name="uogonek">
          18 -47 callsubr
          -52 callsubr
          hstemhm
          75 100 185 70 -55 100 hintmask 00101101
          -98 callsubr
          hintmask 00011101
          -75 callgsubr
          hintmask 00101101
          0 -45 -60 -60 vhcurveto
          hintmask 10000010
          195 -165 -46 callgsubr
          hintmask 01000010
          -97 callsubr
          hintmask 10000010
          -48 callgsubr
        </CharString>
        <CharString name="uring">
          -59 callgsubr
          70 50 90 50 hstemhm
          75 100 0 60 80 60 0 100 hintmask 1010010010000000
          -98 callsubr
          hintmask 0110010010000000
          -75 callgsubr
          hintmask 1010010010000000
          0 -45 -60 -60 vhcurveto
          hintmask 0001101100000000
          5 625 rmoveto
          -94 callgsubr
        </CharString>
        <CharString name="v">
          -57 -62 callgsubr
          295 hmoveto
          160 500 rlineto
          -100 hlineto
          -105 -330 rlineto
          -10 -30 -3 -40 -83 callgsubr
          -3 40 -10 30 vhcurveto
          -105 330 rlineto
          -100 hlineto
          160 -500 rlineto
          endchar
        </CharString>
        <CharString name="w">
          183 -62 callgsubr
          295 500 rmoveto
          -80 -305 rlineto
          -8 -30 -3 -35 -83 callgsubr
          -2 35 -8 30 vhcurveto
          -80 305 rlineto
          -95 hlineto
          130 -500 -20 callsubr
          85 315 rlineto
          7 25 6 45 -81 callsubr
          6 -45 7 -25 vhcurveto
          85 -315 -20 callsubr
          130 500 rlineto
          -95 hlineto
          -80 -305 rlineto
          -8 -30 -2 -35 -83 callgsubr
          -3 35 -8 30 vhcurveto
          -80 305 rlineto
          endchar
        </CharString>
        <CharString name="x">
          -87 callsubr
        </CharString>
        <CharString name="y">
          -52 -210 70 161 -19 callgsubr
          hstem
          -103 callsubr
          endchar
        </CharString>
        <CharString name="yacute">
          -52 -210 70 161 -19 callgsubr
          60 -39 callsubr
          hintmask 11100000
          -103 callsubr
          hintmask 00010000
          120 830 rmoveto
          -25 callgsubr
          65 hlineto
          90 -44 callgsubr
        </CharString>
        <CharString name="ydieresis">
          -52 -210 70 161 -19 callgsubr
          85 14 callsubr
          92 -40 callgsubr
          hintmask 11100000
          -103 callsubr
          hintmask 00011100
          77 760 -106 callgsubr
        </CharString>
        <CharString name="yen">
          3 21 -21 180 70 55 70 325 -20 hstem
          215 100 vstem
          465 180 rmoveto
          70 -141 vlineto
          25 55 rlineto
          116 70 -84 hlineto
          149 325 rlineto
          -105 hlineto
          -140 -305 rlineto
          -11 -25 -7 -35 -83 callgsubr
          -7 35 -11 25 vhcurveto
          -140 305 rlineto
          -105 hlineto
          149 -325 rlineto
          -84 -70 116 hlineto
          25 -55 rlineto
          -141 -70 150 -180 100 180 hlineto
          endchar
        </CharString>
        <CharString name="z">
          5 callsubr
          hstem
          -81 callgsubr
          endchar
        </CharString>
        <CharString name="zacute">
          5 callsubr
          50 -39 callsubr
          hintmask 11000000
          -81 callgsubr
          hintmask 00100000
          182 -24 callgsubr
          -25 callgsubr
          65 hlineto
          90 -44 callgsubr
        </CharString>
        <CharString name="zcaron">
          5 callsubr
          81 -61 callgsubr
          hstemhm
          hintmask 11000000
          -81 callgsubr
          hintmask 00110000
          220 560 -102 callsubr
        </CharString>
        <CharString name="zdotaccent">
          5 callsubr
          60 120 hstemhm
          160 120 hintmask 11000000
          -81 callgsubr
          hintmask 00110000
          245 620 rmoveto
          -49 callsubr
        </CharString>
        <CharString name="zero">
          53 -66 callsubr
          hstem
          55 100 270 100 vstem
          425 14 callgsubr
          -230 -60 -60 -75 -75 -60 60 230 230 60 60 75 75 60 -60 -230 vhcurveto
          -370 hmoveto
          -260 100 -100 135 18 callgsubr
          -135 -26 callsubr
          endchar
        </CharString>
      <CharString index="0">
        255 12 callsubr
        -120 -85 -85 -175 -175 85 -85 135 22 callgsubr
        hvcurveto
        -96 callgsubr
        -60 -80 -50 50 105 vhcurveto
        290 27 callsubr
        -120 vhcurveto
        -70 vmoveto
        60 45 -45 -110 hvcurveto
        -210 hlineto
        110 45 45 60 vhcurveto
        return
      </CharString>
      <CharString index="1">
        rmoveto
        32 -23 23 -32 -32 -23 -23 -32 -32 23 -23 32 32 23 23 32 vhcurveto
        175 hmoveto
        32 -23 23 -32 -32 -23 -23 -32 -32 23 -23 32 32 23 23 32 vhcurveto
        endchar
      </CharString>
      <CharString index="2">
        480 -7 callgsubr
        175 -85 85 21 callsubr
        -85 -85 -175 -175 85 -85 130 130 85 85 175 vhcurveto
        -100 hmoveto
        -140 -50 -50 -65 -65 -74 callsubr
        65 65 50 -50 -140 vhcurveto
        return
      </CharString>
      <CharString index="3">
        220 -10 rmoveto
        145 60 60 90 hvcurveto
        170 -280 -45 110 vvcurveto
        35 30 30 70 70 50 -45 0 vhcurveto
        27 callgsubr
        -130 -60 -60 -85 vhcurveto
        -170 280 45 -110 vvcurveto
        -40 -30 -30 -85 -80 -50 45 0 vhcurveto
        -78 callsubr
        65 -55 120 vhcurveto
        return
      </CharString>
      <CharString index="4">
        310 60 rmoveto
        -75 -50 50 110 hvcurveto
        480 -100 -480 vlineto
        -150 80 -80 145 145 80 80 150 vhcurveto
        480 -100 -480 vlineto
        -110 -50 -50 -75 vhcurveto
        return
      </CharString>
      <CharString index="5">
        35 -25 25 -35 -35 -25 -25 -35 -35 25 -25 35 35 25 25 35 vhcurveto
        return
      </CharString>
      <CharString index="6">
        110 700 -100 -445 hlineto
        -30 4 -55 0 vhcurveto
        -4 hlineto
        0 -16 55 -14 30 vhcurveto
        -210 445 rlineto
        -110 -700 100 445 hlineto
        30 -4 55 0 vhcurveto
        4 hlineto
        0 16 -55 14 -30 vhcurveto
        return
      </CharString>
      <CharString index="7">
        270 25 callgsubr
        60 -69 callgsubr
        -100 -125 -85 -85 -175 -175 85 -85 135 22 callgsubr
        vhcurveto
        -96 callgsubr
        -60 -80 -74 callsubr
        70 vhcurveto
        return
      </CharString>
      <CharString index="8">
        340 295 rmoveto
        -80 hlineto
        -155 -60 -60 -90 -95 60 -60 105 100 45 70 6 callsubr
        return
      </CharString>
      <CharString index="9">
        -35 25 -25 35 35 25 25 35 35 -25 25 -35 -35 -25 -25 -35 vhcurveto
        return
      </CharString>
      <CharString index="10">
        rmoveto
        1 -17 -40 -30 hhcurveto
        hintmask 00001000
        -30 -10 45 -50 hhcurveto
        -50 -25 -40 -45 -15 hvcurveto
        40 -25 rlineto
        9 hlineto
        -1 17 40 30 hhcurveto
        hintmask 00100000
        30 10 -45 50 hhcurveto
        50 25 40 45 15 hvcurveto
        -40 25 rlineto
        endchar
      </CharString>
      <CharString index="11">
        -35 60 rlineto
        -10 hlineto
        0 -50 -45 return
      </CharString>
      <CharString index="12">
        270 15 callsubr
        155 -260 rlineto
        115 hlineto
        -167 275 rlineto
        92 30 45 70 105 vvcurveto
        22 callsubr
        -170 vhcurveto
        -170 -700 11 callsubr
        hlineto
        70 vmoveto
        300 70 -37 callsubr
        return
      </CharString>
      <CharString index="13">
        20 20 -15 -30 -30 -20 -15 -20 -20 -20 15 30 30 20 15 20 hvcurveto
        50 vmoveto
        -60 -40 -40 -55 -55 40 -40 60 60 40 40 55 55 -40 40 -60 hvcurveto
        endchar
      </CharString>
      <CharString index="14">
        60 vmoveto
        -95 -65 -65 -115 -115 65 -65 95 95 65 65 115 115 -65 65 -95 hvcurveto
        return
      </CharString>
      <CharString index="15">
        -25 -21 15 1 hhcurveto
        -9 hlineto
        -16 -40 rlineto
        0 30 -20 50 60 35 35 45 45 -35 35 -55 vhcurveto
        endchar
      </CharString>
      <CharString index="16">
        115 -230 hlineto
        1 -35 -21 -40 -100 -70 -28 callgsubr
        220 70 70 90 70 50 -45 0 vhcurveto
        27 callgsubr
        -140 -110 -110 -250 -250 110 -110 150 115 70 55 0 vhcurveto
        return
      </CharString>
      <CharString index="17">
        280 435 rmoveto
        55 40 -40 -55 hvcurveto
        -52 callgsubr
        -100 -100 -45 -70 0 vhcurveto
        -5 hlineto
        return
      </CharString>
      <CharString index="18">
        313 21 -21 505 -20 215 -29 callgsubr
        460 7 callgsubr
        -24 callgsubr
        -100 -700 100 420 hlineto
        30 -4 55 0 vhcurveto
        4 hlineto
        0 15 -55 15 -30 vhcurveto
        150 -295 -10 callgsubr
        150 295 rlineto
        15 30 15 55 -21 callsubr
        -55 -30 vvcurveto
        -420 100 700 -100 vlineto
        -210 -425 rlineto
        -10 -16 -8 -34 -83 callgsubr
        -8 34 -10 16 vhcurveto
        endchar
      </CharString>
      <CharString index="19">
        35 -60 rlineto
        10 hlineto
        0 50 45 return
      </CharString>
      <CharString index="20">
        3 -83 callsubr
        hstem
        130 -24 callgsubr
        -110 hlineto
        180 -345 -185 -355 -20 callsubr
        120 235 rlineto
        9 17 9 28 -81 callsubr
        9 -28 9 -17 vhcurveto
        120 -235 -20 callsubr
        -185 355 180 345 rlineto
        -110 hlineto
        -115 -225 rlineto
        -9 -17 -9 -28 -83 callgsubr
        -9 28 -9 17 vhcurveto
        endchar
      </CharString>
      <CharString index="21">
        285 395 rmoveto
        -11 -25 -7 -35 -83 callgsubr
        -7 35 -11 25 vhcurveto
        -140 305 rlineto
        -105 hlineto
        215 -470 rlineto
        -230 11 callgsubr
        vlineto
        215 470 rlineto
        -105 hlineto
        return
      </CharString>
      <CharString index="22">
        rmoveto
        125 70 -125 120 -45 hlineto
        21 callsubr
        rlineto
        -60 75 -280 vlineto
        -95 65 -65 100 80 60 50 0 vhcurveto
        -35 60 rlineto
        -10 hlineto
        0 -40 -40 -45 -45 -30 30 60 vhcurveto
        return
      </CharString>
      <CharString index="23">
        -65 callsubr
        225 70 145 70 return
      </CharString>
      <CharString index="24">
        0 vvcurveto
        -4 hlineto
        0 return
      </CharString>
      <CharString index="25">
        -277 -200 20 callgsubr
        100 120 hstem
        75 100 vstem
        185 640 rmoveto
        -102 callgsubr
        -185 -770 rmoveto
        -30 -92 callsubr
        60 100 65 65 95 vhcurveto
        540 -100 -540 vlineto
        -60 -30 -30 -45 vhcurveto
        endchar
      </CharString>
      <CharString index="26">
        405 hmoveto
        70 -250 vlineto
        245 355 rlineto
        75 -365 -70 245 vlineto
        -245 -355 rlineto
        -75 vlineto
        return
      </CharString>
      <CharString index="27">
        430 730 rmoveto
        -230 -160 -160 -220 -220 160 -160 230 230 160 160 220 220 -160 160 -230 hvcurveto
        -70 vmoveto
        170 130 -130 -180 -180 21 callsubr
        -170 -170 -130 130 180 180 130 130 170 hvcurveto
        return
      </CharString>
      <CharString index="28">
        500 rmoveto
        -500 100 500 vlineto
        return
      </CharString>
      <CharString index="29">
        125 60 rmoveto
        -45 -40 40 -72 callsubr
        -30 -65 rlineto
        0 55 -45 80 135 70 70 130 vhcurveto
        510 -100 -510 vlineto
        -90 -40 -40 -75 vhcurveto
        return
      </CharString>
      <CharString index="30">
        -1 callgsubr
        vstem
        40 50 rmoveto
        -35 25 -25 30 vhcurveto
        -45 -55 -40 -38 callsubr
        -35 rlineto
        0 90 55 115 vvcurveto
        45 -25 25 -40 -30 -25 -25 -35 vhcurveto
        return
      </CharString>
      <CharString index="31">
        rmoveto
        -105 hlineto
        206 -515 rlineto
        45 hlineto
        -20 -60 rlineto
        -40 -13 -32 -30 -40 hhcurveto
        -35 -92 callsubr
        65 85 66 65 75 24 vhcurveto
        185 575 rlineto
        -100 hlineto
        -120 -365 rlineto
        -8 -26 -11 -49 -83 callgsubr
        -12 50 -10 25 vhcurveto
        endchar
      </CharString>
      <CharString index="32">
        10 -60 rlineto
        70 15 callgsubr
        -375 hlineto
        return
      </CharString>
      <CharString index="33">
        -90 -30 -30 -40 -40 -30 30 90 90 30 30 40 return
      </CharString>
      <CharString index="34">
        38 21 -21 240 70 320 70 hstem
        90 100 230 7 callgsubr
        310 rmoveto
        320 80 vlineto
        100 50 -50 -110 -110 -50 -50 -100 hvcurveto
        -70 vmoveto
        170 80 80 150 150 -80 80 -170 hvcurveto
        -180 -700 100 240 hlineto
        endchar
      </CharString>
      <CharString index="35">
        35 -25 25 -30 vhcurveto
        45 55 40 0 vhcurveto
        -30 35 rlineto
        0 -90 -55 -115 vvcurveto
        -45 25 -25 40 30 25 25 35 vhcurveto
        return
      </CharString>
      <CharString index="36">
        -21 700 -20 return
      </CharString>
      <CharString index="37">
        rmoveto
        -70 270 70 vlineto
        endchar
      </CharString>
      <CharString index="38">
        50 -45 0 hvcurveto
        10 hlineto
        35 60 rlineto
        0 -65 55 return
      </CharString>
      <CharString index="39">
        43 -66 callgsubr
        return
      </CharString>
      <CharString index="40">
        345 285 rmoveto
        18 30 12 40 -21 callsubr
        -40 -30 vvcurveto
        -285 100 15 callgsubr
        vlineto
        -170 -285 rlineto
        -18 -30 -12 -40 -83 callgsubr
        4 40 30 vvcurveto
        285 -100 -500 100 vlineto
        return
      </CharString>
      <CharString index="41">
        21 -21 180 70 450 -20 return
      </CharString>
      <CharString index="42">
        -10 -54 callsubr
        return
      </CharString>
      <CharString index="43">
        rmoveto
        1 -17 -40 -30 hhcurveto
        hintmask 00000100
        -30 -10 45 -50 hhcurveto
        -50 -25 -40 -45 -15 hvcurveto
        40 -25 rlineto
        9 hlineto
        -1 17 40 30 hhcurveto
        hintmask 00010000
        30 10 -45 50 hhcurveto
        50 25 40 45 15 hvcurveto
        -40 25 rlineto
        endchar
      </CharString>
      <CharString index="44">
        -277 -54 callgsubr
        100 120 hstem
        75 100 vstem
        75 -79 callgsubr
        10 -55 callgsubr
        endchar
      </CharString>
      <CharString index="45">
        -54 callgsubr
        hstem
        return
      </CharString>
      <CharString index="46">
        -21 -24 callsubr
        return
      </CharString>
      <CharString index="47">
        hhcurveto
        10 10 -5 6 callsubr
        hintmask 10101100
        10 65 rlineto
        hintmask 10110100
        0 return
      </CharString>
      <CharString index="48">
        23 -52 callsubr
        return
      </CharString>
      <CharString index="49">
        20 85 rlineto
        20 5 10 10 15 -60 callgsubr
        -25 10 -35 -57 -30 -30 -55 -13 vhcurveto
        -20 -85 rlineto
        -30 -7 -20 -20 -38 hhcurveto
        return
      </CharString>
      <CharString index="50">
        -17 callgsubr
        -65 -30 -30 -70 hvcurveto
        return
      </CharString>
      <CharString index="51">
        50 vlineto
        120 70 -70 -210 -210 -70 -70 -120 hvcurveto
        return
      </CharString>
      <CharString index="52">
        140 rmoveto
        -102 callgsubr
        return
      </CharString>
      <CharString index="53">
        21 -19 callgsubr
        return
      </CharString>
      <CharString index="54">
        90 vstem
        105 -57 callsubr
        -450 -280 rmoveto
        -75 -60 240 60 -75 280 -85 hlineto
        -95 -80 30 -45 60 35 rlineto
        return
      </CharString>
      <CharString index="55">
        -340 100 340 vlineto
        100 -70 70 return
      </CharString>
      <CharString index="56">
        40 -81 callsubr
        return
      </CharString>
      <CharString index="57">
        165 80 80 140 22 callsubr
        -165 hvcurveto
        -70 vmoveto
        95 50 -50 -100 return
      </CharString>
      <CharString index="58">
        300 360 rmoveto
        230 340 rlineto
        -115 hlineto
        -225 -330 rlineto
        330 -100 -700 100 350 vlineto
        235 -350 rlineto
        115 hlineto
        return
      </CharString>
      <CharString index="59">
        1 -27 -22 -30 hhcurveto
        endchar
      </CharString>
      <CharString index="60">
        -60 60 -140 hvcurveto
        -70 vmoveto
        70 30 -30 return
      </CharString>
      <CharString index="61">
        rmoveto
        -20 -15 15 20 hvcurveto
        return
      </CharString>
      <CharString index="62">
        0 hvcurveto
        -10 return
      </CharString>
      <CharString index="63">
        150 rlineto
        endchar
      </CharString>
      <CharString index="64">
        -39 callgsubr
        220 70 150 70 -10 -20 return
      </CharString>
      <CharString index="65">
        -21 216 -20 return
      </CharString>
      <CharString index="66">
        0 -30 10 -35 -95 -45 -70 0 vhcurveto
        -5 hlineto
        return
      </CharString>
      <CharString index="67">
        12 callgsubr
        110 return
      </CharString>
      <CharString index="68">
        -10 70 -39 -21 return
      </CharString>
      <CharString index="69">
        -190 45 70 45 -45 95 return
      </CharString>
      <CharString index="70">
        110 -80 80 -145 -130 -65 -55 0 vhcurveto
        -88 callgsubr
        90 85 50 -50 -60 vhcurveto
        return
      </CharString>
      <CharString index="71">
        -205 -42 callgsubr
        51 -21 return
      </CharString>
      <CharString index="72">
        hstemhm
        50 -25 callsubr
        return
      </CharString>
      <CharString index="73">
        hstemhm
        55 100 290 100 return
      </CharString>
      <CharString index="74">
        25 -72 callsubr
        return
      </CharString>
      <CharString index="75">
        115 -80 80 -130 -80 -60 -15 0 vhcurveto
        195 180 70 -420 -70 140 -630 100 return
      </CharString>
      <CharString index="76">
        -140 210 -70 70 430 -20 hstemhm
        75 100 return
      </CharString>
      <CharString index="77">
        500 14 callgsubr
        -30 30 rlineto
        -185 -70 hlineto
        return
      </CharString>
      <CharString index="78">
        -20 -2 callsubr
        return
      </CharString>
      <CharString index="79">
        70 220 return
      </CharString>
      <CharString index="80">
        580 70 return
      </CharString>
      <CharString index="81">
        210 -100 -500 100 220 return
      </CharString>
      <CharString index="82">
        -45 -7 callsubr
        return
      </CharString>
      <CharString index="83">
        700 rmoveto
        return
      </CharString>
      <CharString index="84">
        hstem
        75 100 vstem
        405 500 rmoveto
        -330 -500 100 430 230 hlineto
        return
      </CharString>
      <CharString index="85">
        15 -140 rlineto
        80 210 -65 430 return
      </CharString>
      <CharString index="86">
        15 -7 callsubr
        80 220 -65 630 return
      </CharString>
      <CharString index="87">
        hstemhm
        -13 callgsubr
        return
      </CharString>
      <CharString index="88">
        -21 500 -20 return
      </CharString>
      <CharString index="89">
        21 -21 430 return
      </CharString>
      <CharString index="90">
        19 callsubr
        105 105 -47 callgsubr
        -65 return
      </CharString>
      <CharString index="91">
        460 240 hstem
        60 460 rmoveto
        65 hlineto
        20 240 rlineto
        -105 hlineto
        return
      </CharString>
      <CharString index="92">
        21 3 callgsubr
        return
      </CharString>
      <CharString index="93">
        290 70 -390 -700 return
      </CharString>
      <CharString index="94">
        45 100 195 100 return
      </CharString>
      <CharString index="95">
        -179 -21 190 return
      </CharString>
      <CharString index="96">
        100 240 100 vstem
        return
      </CharString>
      <CharString index="97">
        rlineto
        100 hlineto
        return
      </CharString>
      <CharString index="98">
        48 21 19 callgsubr
        return
      </CharString>
      <CharString index="99">
        -83 callsubr
        70 -39 callsubr
        return
      </CharString>
      <CharString index="100">
        250 rmoveto
        return
      </CharString>
      <CharString index="101">
        180 rlineto
        return
      </CharString>
      <CharString index="102">
        -100 -430 -170 430 -100 -430 -170 430 -100 return
      </CharString>
      <CharString index="103">
        165 80 -165 165 -80 -165 -165 -80 165 return
      </CharString>
      <CharString index="104">
        0 25 -10 30 75 48 50 120 7 vhcurveto
        15 270 rlineto
        return
      </CharString>
      <CharString index="105">
        hstemhm
        90 100 return
      </CharString>
      <CharString index="106">
        40 120 return
      </CharString>
      <CharString index="107">
        -10 0 hvcurveto
        10 -65 rlineto
        5 hlineto
        hintmask 10110100
        0 10 5 10 return
      </CharString>
      <CharString index="108">
        18 -15 callgsubr
        return
      </CharString>
      <CharString index="109">
        -14 callgsubr
        vlineto
        return
      </CharString>
      <CharString index="110">
        21 callgsubr
        -10 -20 return
      </CharString>
      <CharString index="111">
        -42 0 70 560 70 return
      </CharString>
      <CharString index="112">
        50 -50 -100 -100 -50 -50 return
      </CharString>
      <CharString index="113">
        103 -83 callsubr
        return
      </CharString>
      <CharString index="114">
        100 vstem
        190 return
      </CharString>
      <CharString index="115">
        100 225 100 return
      </CharString>
      <CharString index="116">
        100 -28 callsubr
        return
      </CharString>
      <CharString index="117">
        70 155 return
      </CharString>
      <CharString index="118">
        100 230 return
      </CharString>
      <CharString index="119">
        110 65 return
      </CharString>
      <CharString index="120">
        -12 callgsubr
        -54 callsubr
        190 -20 hstem
        return
      </CharString>
      <CharString index="121">
        350 rmoveto
        return
      </CharString>
      <CharString index="122">
        500 -100 return
      </CharString>
      <CharString index="123">
        -39 callgsubr
        325 70 245 70 -10 -20 return
      </CharString>
      <CharString index="124">
        8 -210 70 130 70 375 75 -10 -20 return
      </CharString>
      <CharString index="125">
        135 100 11 callsubr
        260 -100 100 -135 return
      </CharString>
      <CharString index="126">
        -21 260 70 300 70 return
      </CharString>
      <CharString index="127">
        70 630 -20 return
      </CharString>
      <CharString index="128">
        -21 435 75 return
      </CharString>
      <CharString index="129">
        100 65 55 0 return
      </CharString>
      <CharString index="130">
        150 -65 65 return
      </CharString>
      <CharString index="131">
        100 -18 callsubr
        return
      </CharString>
      <CharString index="132">
        440 rmoveto
        return
      </CharString>
      <CharString index="133">
        100 125 rmoveto
        -70 hlineto
        -10 -60 rlineto
        -5 hlineto
        return
      </CharString>
      <CharString index="134">
        10 hlineto
        35 60 rlineto
        0 -65 55 -110 return
      </CharString>
      <CharString index="135">
        70 250 -50 callsubr
        hstemhm
        55 100 return
      </CharString>
</ttFont>
